<svg width="40" height="40" viewBox="0 0 40 40" fill="none" xmlns="http://www.w3.org/2000/svg">
<path fill-rule="evenodd" clip-rule="evenodd" d="M28.3933 3.75C29.9004 3.74999 31.1158 3.74997 32.0963 3.83884C33.1069 3.93043 33.9899 4.12426 34.792 4.58734C35.7421 5.13589 36.5311 5.92488 37.0796 6.875C37.5427 7.67709 37.7366 8.56009 37.8282 9.57066C37.917 10.5511 37.917 11.886 37.917 13.393C37.917 14.9001 37.917 16.1155 37.8282 17.096C37.7366 18.1066 37.5427 18.9896 37.0796 19.7917C36.5311 20.7418 35.7421 21.5308 34.792 22.0793C33.9899 22.5424 33.1069 22.7362 32.0963 22.8278C31.1158 22.9167 29.9004 22.9167 28.3933 22.9167L27.5434 22.9167C26.5276 22.917 25.8252 22.9172 25.1536 22.768C24.2574 22.5689 23.416 22.1748 22.6894 21.6138C22.1447 21.1933 21.6953 20.6537 21.0451 19.873C20.7413 19.5084 20.47 19.184 20.3209 19.0295C20.0297 18.7382 19.7721 18.9081 19.6797 19.0295C19.5307 19.184 19.2593 19.5085 18.9555 19.8731C18.3054 20.6537 17.8559 21.1933 17.3113 21.6138C16.5846 22.1748 15.7433 22.5689 14.8471 22.768C14.1754 22.9172 13.4731 22.917 12.4573 22.9167L11.6074 22.9167C10.1003 22.9167 8.88482 22.9167 7.90432 22.8278C6.89375 22.7362 6.01074 22.5424 5.20866 22.0793C4.25854 21.5308 3.46955 20.7418 2.921 19.7917C2.45792 18.9896 2.26409 18.1066 2.1725 17.096C2.08363 16.1155 2.08364 14.9001 2.08366 13.393C2.08364 11.8859 2.08363 10.5512 2.1725 9.57066C2.26409 8.56009 2.45792 7.67709 2.921 6.875C3.46955 5.92488 4.25854 5.13589 5.20866 4.58734C6.01075 4.12426 6.89375 3.93043 7.90432 3.83884C8.8848 3.74997 10.1003 3.74999 11.6073 3.75H28.3933ZM6.66699 10C6.66699 9.07953 7.41318 8.33333 8.33366 8.33333H11.667C12.5875 8.33333 13.3337 9.07953 13.3337 10C13.3337 10.9205 12.5875 11.6667 11.667 11.6667H8.33366C7.41318 11.6667 6.66699 10.9205 6.66699 10Z" fill="#5F398E"/>
<path d="M4.87918 23.9589C4.53405 23.1055 3.56251 22.6936 2.70919 23.0387C1.85587 23.3838 1.44389 24.3554 1.78902 25.2087C2.27184 26.4025 3.19888 27.4521 4.31324 28.3369C5.44256 29.2337 6.85613 30.0348 8.45745 30.7047C10.3996 31.5171 12.6686 32.1578 15.1389 32.5363V34.7029C15.1662 35.0861 15.3254 35.4619 15.6169 35.7563C16.2645 36.4105 17.3197 36.4158 17.9739 35.7682L21.341 32.4349C21.6572 32.1219 21.8351 31.6954 21.8351 31.2504C21.8351 30.8055 21.6572 30.379 21.341 30.066L17.9739 26.7327C17.3197 26.0851 16.2645 26.0904 15.6169 26.7446C15.2651 27.0999 15.106 27.5737 15.1389 28.0361V29.1595C13.127 28.8146 11.2976 28.2796 9.74388 27.6296C8.35719 27.0495 7.22452 26.3922 6.38608 25.7265C5.53269 25.0488 5.07044 24.4318 4.87918 23.9589Z" fill="#5F398E"/>
<path d="M38.2095 25.2162C38.5587 24.3645 38.1515 23.391 37.2998 23.0417C36.4482 22.6925 35.4747 23.0998 35.1254 23.9514C34.7157 24.9505 33.6655 26.0547 31.8546 27.045C30.0725 28.0196 27.7089 28.7952 24.9632 29.2221C24.0536 29.3635 23.4309 30.2154 23.5723 31.125C23.7137 32.0345 24.5657 32.6572 25.4752 32.5158C28.5151 32.0432 31.2641 31.1672 33.454 29.9696C35.6151 28.7877 37.3963 27.199 38.2095 25.2162Z" fill="#5F398E"/>
</svg>
