<svg width="25" height="24" viewBox="0 0 25 24" fill="none" xmlns="http://www.w3.org/2000/svg">
<path opacity="0.4" d="M2.43359 21.9998V6.02979C2.43359 4.01979 3.43365 3.00977 5.42365 3.00977H11.6536C13.6436 3.00977 14.6336 4.01979 14.6336 6.02979V21.9998" fill="#17191F"/>
<path d="M11.0838 9H6.13379C5.72379 9 5.38379 8.66 5.38379 8.25C5.38379 7.84 5.72379 7.5 6.13379 7.5H11.0838C11.4938 7.5 11.8338 7.84 11.8338 8.25C11.8338 8.66 11.4938 9 11.0838 9Z" fill="#17191F"/>
<path d="M11.0838 12.75H6.13379C5.72379 12.75 5.38379 12.41 5.38379 12C5.38379 11.59 5.72379 11.25 6.13379 11.25H11.0838C11.4938 11.25 11.8338 11.59 11.8338 12C11.8338 12.41 11.4938 12.75 11.0838 12.75Z" fill="#17191F"/>
<path d="M8.58398 22.75C8.17398 22.75 7.83398 22.41 7.83398 22V18.25C7.83398 17.84 8.17398 17.5 8.58398 17.5C8.99398 17.5 9.33398 17.84 9.33398 18.25V22C9.33398 22.41 8.99398 22.75 8.58398 22.75Z" fill="#17191F"/>
<path d="M23.334 21.2491H21.064V18.2491C22.014 17.9391 22.704 17.0491 22.704 15.9991V13.9991C22.704 12.6891 21.634 11.6191 20.324 11.6191C19.014 11.6191 17.944 12.6891 17.944 13.9991V15.9991C17.944 17.0391 18.624 17.9191 19.554 18.2391V21.2491H1.33398C0.923984 21.2491 0.583984 21.5891 0.583984 21.9991C0.583984 22.4091 0.923984 22.7491 1.33398 22.7491H20.264C20.284 22.7491 20.294 22.7592 20.314 22.7592C20.334 22.7592 20.344 22.7491 20.364 22.7491H23.334C23.744 22.7491 24.084 22.4091 24.084 21.9991C24.084 21.5891 23.744 21.2491 23.334 21.2491Z" fill="black"/>
</svg>
