<svg width="40" height="41" viewBox="0 0 40 41" fill="none" xmlns="http://www.w3.org/2000/svg">
<path d="M18.4173 25.4166L15.334 28.4999C14.684 29.1499 13.6507 29.1499 12.984 28.5166C12.8007 28.3333 12.6173 28.1666 12.434 27.9833C10.7173 26.2499 9.16732 24.4333 7.78398 22.5333C6.41732 20.6333 5.31732 18.7333 4.51732 16.8499C3.73398 14.9499 3.33398 13.1333 3.33398 11.3999C3.33398 10.2666 3.53398 9.18325 3.93398 8.18325C4.33398 7.16659 4.96732 6.23325 5.85065 5.39992C6.91732 4.34992 8.08398 3.83325 9.31732 3.83325C9.78398 3.83325 10.2507 3.93325 10.6673 4.13325C11.1007 4.33325 11.484 4.63325 11.784 5.06659L15.6507 10.5166C15.9507 10.9333 16.1673 11.3166 16.3173 11.6833C16.4673 12.0333 16.5507 12.3833 16.5507 12.6999C16.5507 13.0999 16.434 13.4999 16.2007 13.8833C15.984 14.2666 15.6673 14.6666 15.2673 15.0666L14.0007 16.3833C13.8173 16.5666 13.734 16.7833 13.734 17.0499C13.734 17.1833 13.7507 17.2999 13.784 17.4333C13.834 17.5666 13.884 17.6666 13.9173 17.7666C14.2173 18.3166 14.734 19.0333 15.4673 19.8999C16.2173 20.7666 17.0173 21.6499 17.884 22.5333C18.0506 22.6999 18.234 22.8666 18.4007 23.0333C19.0673 23.6833 19.084 24.7499 18.4173 25.4166Z" fill="#5F398E"/>
<path d="M36.6167 31.0499C36.6167 31.5166 36.5333 31.9999 36.3667 32.4666C36.3167 32.5999 36.2667 32.7332 36.2 32.8666C35.9167 33.4666 35.55 34.0332 35.0667 34.5666C34.25 35.4666 33.35 36.1166 32.3333 36.5332C32.3167 36.5332 32.3 36.5499 32.2833 36.5499C31.3 36.9499 30.2333 37.1666 29.0833 37.1666C27.3833 37.1666 25.5667 36.7666 23.65 35.9499C21.7333 35.1332 19.8167 34.0332 17.9167 32.6499C17.2667 32.1666 16.6167 31.6832 16 31.1666L21.45 25.7166C21.9167 26.0666 22.3333 26.3332 22.6833 26.5166C22.7667 26.5499 22.8667 26.5999 22.9833 26.6499C23.1167 26.6999 23.25 26.7166 23.4 26.7166C23.6833 26.7166 23.9 26.6166 24.0833 26.4332L25.35 25.1832C25.7667 24.7666 26.1667 24.4499 26.55 24.2499C26.9333 24.0166 27.3167 23.8999 27.7333 23.8999C28.05 23.8999 28.3833 23.9666 28.75 24.1166C29.1167 24.2666 29.5 24.4832 29.9167 24.7666L35.4333 28.6832C35.8667 28.9832 36.1667 29.3332 36.35 29.7499C36.5167 30.1666 36.6167 30.5832 36.6167 31.0499Z" fill="#5F398E"/>
</svg>
