<svg width="25" height="24" viewBox="0 0 25 24" fill="none" xmlns="http://www.w3.org/2000/svg">
<path opacity="0.4" d="M22.4296 13.66C22.2796 12.01 21.8396 10.25 18.6296 10.25H5.8696C2.6596 10.25 2.2296 12.01 2.0696 13.66L1.5096 19.75C1.4396 20.51 1.6896 21.27 2.2096 21.84C2.7396 22.42 3.4896 22.75 4.2896 22.75H6.1696C7.7896 22.75 8.0996 21.82 8.2996 21.21L8.4996 20.61C8.7296 19.92 8.7896 19.75 9.6896 19.75H14.8096C15.7096 19.75 15.7396 19.85 15.9996 20.61L16.1996 21.21C16.3996 21.82 16.7096 22.75 18.3296 22.75H20.2096C20.9996 22.75 21.7596 22.42 22.2896 21.84C22.8096 21.27 23.0596 20.51 22.9896 19.75L22.4296 13.66Z" fill="#17191F"/>
<path d="M21.25 7.25008H20.25C20.24 7.25008 20.24 7.25008 20.23 7.25008L19.85 5.44008C19.49 3.69008 18.74 2.08008 15.76 2.08008H13H11.5H8.74C5.76 2.08008 5.01 3.69008 4.65 5.44008L4.27 7.25008C4.26 7.25008 4.26 7.25008 4.25 7.25008H3.25C2.84 7.25008 2.5 7.59008 2.5 8.00008C2.5 8.41008 2.84 8.75008 3.25 8.75008H3.96L3.54 10.7501C4.08 10.4401 4.83 10.2501 5.87 10.2501H18.63C19.67 10.2501 20.42 10.4401 20.96 10.7501L20.54 8.75008H21.25C21.66 8.75008 22 8.41008 22 8.00008C22 7.59008 21.66 7.25008 21.25 7.25008Z" fill="#17191F"/>
<path d="M9.25 15.75H6.25C5.84 15.75 5.5 15.41 5.5 15C5.5 14.59 5.84 14.25 6.25 14.25H9.25C9.66 14.25 10 14.59 10 15C10 15.41 9.66 15.75 9.25 15.75Z" fill="#17191F"/>
<path d="M18.25 15.75H15.25C14.84 15.75 14.5 15.41 14.5 15C14.5 14.59 14.84 14.25 15.25 14.25H18.25C18.66 14.25 19 14.59 19 15C19 15.41 18.66 15.75 18.25 15.75Z" fill="#17191F"/>
</svg>
