<svg width="40" height="40" viewBox="0 0 40 40" fill="none" xmlns="http://www.w3.org/2000/svg">
<path d="M12.9163 3.33325V12.9999H3.33301C3.33301 6.98325 6.91634 3.36659 12.9163 3.33325Z" fill="#5F398E"/>
<path d="M36.6663 12.9999H27.083V3.33325C33.083 3.36659 36.6663 6.98325 36.6663 12.9999Z" fill="#5F398E"/>
<path d="M36.6663 27.1667C36.5997 33.0834 33.033 36.6334 27.083 36.6667V27.1667H36.6663Z" fill="#5F398E"/>
<path d="M12.9163 27.1667V36.6667C6.96634 36.6334 3.39967 33.0834 3.33301 27.1667H12.9163Z" fill="#5F398E"/>
<path d="M12.9163 15.5H3.33301V24.6667H12.9163V15.5Z" fill="#5F398E"/>
<path d="M36.6663 15.5H27.083V24.6667H36.6663V15.5Z" fill="#5F398E"/>
<path d="M24.5837 15.5H15.417V24.6667H24.5837V15.5Z" fill="#5F398E"/>
<path d="M24.5837 3.33325H15.417V12.9999H24.5837V3.33325Z" fill="#5F398E"/>
<path d="M24.5837 27.1667H15.417V36.6667H24.5837V27.1667Z" fill="#5F398E"/>
</svg>
