<svg width="34" height="34" viewBox="0 0 34 34" fill="none" xmlns="http://www.w3.org/2000/svg">
<path d="M32.1663 10.1166C33.133 9.04992 33.6663 7.66659 33.6663 6.21659C33.6663 2.96659 31.033 0.333252 27.783 0.333252C26.333 0.333252 24.9663 0.866585 23.8997 1.83325C21.7497 0.833252 19.433 0.333252 16.9997 0.333252C14.6163 0.333252 12.2497 0.849919 10.1163 1.83325C9.04967 0.866585 7.66634 0.333252 6.21634 0.333252C2.96634 0.333252 0.333008 2.96659 0.333008 6.21659C0.333008 7.66659 0.866341 9.04992 1.83301 10.1166C0.849675 12.2499 0.333008 14.6166 0.333008 16.9999C0.333008 19.4333 0.833008 21.7499 1.83301 23.8999C0.866341 24.9666 0.333008 26.3333 0.333008 27.7833C0.333008 31.0333 2.96634 33.6666 6.21634 33.6666C7.66634 33.6666 9.04967 33.1333 10.1163 32.1666C12.2497 33.1499 14.6163 33.6666 16.9997 33.6666C19.433 33.6666 21.7497 33.1666 23.8997 32.1666C24.9663 33.1333 26.333 33.6666 27.783 33.6666C31.033 33.6666 33.6663 31.0333 33.6663 27.7833C33.6663 26.3333 33.133 24.9666 32.1663 23.8999C33.1663 21.7499 33.6663 19.4333 33.6663 16.9999C33.6663 14.6166 33.1497 12.2499 32.1663 10.1166ZM29.7997 22.2833C29.6163 22.2166 29.433 22.1499 29.2497 22.0999C28.9663 22.0333 28.6663 21.9833 28.383 21.9499C28.183 21.9333 27.983 21.9166 27.783 21.9166C24.5497 21.9166 21.9163 24.5499 21.9163 27.7833C21.9163 27.9833 21.933 28.1833 21.9497 28.3833C21.983 28.6666 22.033 28.9666 22.0997 29.2499C22.1497 29.4333 22.2163 29.6166 22.283 29.7999C22.283 29.8499 22.2997 29.8999 22.333 29.9499C22.3497 29.9999 22.3663 30.0499 22.383 30.0999C19.033 31.4999 15.033 31.5166 11.6163 30.0999C11.633 30.0499 11.6497 29.9999 11.6663 29.9499C11.6997 29.8999 11.7163 29.8499 11.7163 29.7999C11.783 29.6166 11.8497 29.4333 11.8997 29.2499C11.9663 28.9666 12.0163 28.6666 12.0497 28.3833C12.0663 28.1833 12.083 27.9833 12.083 27.7833C12.083 24.5499 9.44968 21.9166 6.21634 21.9166C6.01634 21.9166 5.81634 21.9333 5.61634 21.9499C5.33301 21.9833 5.03301 22.0333 4.74967 22.0999C4.56634 22.1499 4.38301 22.2166 4.19967 22.2833C4.14967 22.2833 4.09967 22.2999 4.04967 22.3333C3.99967 22.3499 3.94967 22.3666 3.89967 22.3833C3.18301 20.6999 2.83301 18.8833 2.83301 16.9999C2.83301 15.1499 3.19967 13.2999 3.89967 11.6166C3.91634 11.6166 3.94967 11.6333 3.96634 11.6333C3.76634 11.5499 3.54967 11.4499 3.36634 11.3499C3.09967 11.1999 2.83301 11.0333 2.58301 10.8333C3.08301 11.2166 3.61634 11.5166 4.19967 11.7166C4.39967 11.7999 4.61634 11.8666 4.81634 11.9166C4.94967 11.9499 5.06634 11.9666 5.18301 11.9833C5.33301 12.0166 5.46634 12.0333 5.61634 12.0499C5.81634 12.0666 6.01634 12.0833 6.21634 12.0833C9.44968 12.0833 12.083 9.44992 12.083 6.21659C12.083 6.01659 12.0663 5.81659 12.0497 5.61659C12.033 5.46659 12.0163 5.33325 11.983 5.18325C11.9663 5.06659 11.9497 4.94992 11.9163 4.81659C11.8663 4.61659 11.7997 4.39992 11.7163 4.19992C11.5163 3.61659 11.2163 3.08325 10.833 2.58325C11.033 2.83325 11.1997 3.09992 11.3497 3.36659C11.4497 3.54992 11.5497 3.76659 11.633 3.96659C11.633 3.94992 11.6163 3.91659 11.6163 3.89992C15.0163 2.48325 19.033 2.49992 22.383 3.89992C22.3663 3.94992 22.3497 3.99992 22.333 4.04992C22.2997 4.09992 22.283 4.14992 22.283 4.19992C22.2163 4.38325 22.1497 4.56659 22.0997 4.74992C22.033 5.03325 21.983 5.33325 21.9497 5.61659C21.933 5.81659 21.9163 6.01659 21.9163 6.21659C21.9163 9.44992 24.5497 12.0833 27.783 12.0833C27.983 12.0833 28.183 12.0666 28.383 12.0499C28.6663 12.0166 28.9663 11.9666 29.2497 11.8999C29.433 11.8499 29.6163 11.7833 29.7997 11.7166C29.8497 11.7166 29.8997 11.6999 29.9497 11.6666C29.9997 11.6499 30.0497 11.6333 30.0997 11.6166C30.7997 13.2999 31.1663 15.1499 31.1663 16.9999C31.1663 18.8833 30.8163 20.6999 30.0997 22.3833C30.0497 22.3666 29.9997 22.3499 29.9497 22.3333C29.8997 22.2999 29.8497 22.2833 29.7997 22.2833Z" fill="#5F398E"/>
</svg>
