<svg width="271" height="285" viewBox="0 0 271 285" fill="none" xmlns="http://www.w3.org/2000/svg">
<path d="M0.00906749 142.594C4.0441 142.893 8.0882 143.226 12.1232 143.499C26.3048 144.439 40.3413 146.232 54.151 149.537C89.5324 157.993 113.044 178.285 124.061 211.243C127.969 222.952 130.517 234.909 132.204 247.063C133.954 259.651 134.752 272.317 135.577 285C136.212 280.473 136.547 275.956 136.837 271.429C138.143 251.512 140.655 231.792 146.884 212.601C157.221 180.745 178.956 159.778 213.177 150.605C224.828 147.479 236.698 145.464 248.748 144.37C256.157 143.696 263.583 143.183 271 142.594C254.651 141.338 238.457 139.81 222.471 136.547C182.22 128.348 156.396 105.904 145.615 68.2565C141.543 54.0535 139.077 39.637 137.771 25.0154C137.028 16.6883 136.493 8.34417 135.867 0C134.824 3.26251 134.997 6.50794 134.797 9.72775C133.519 31.3526 131.143 52.8237 124.052 73.5944C115.338 99.1052 99.2799 118.586 72.5762 129.356C63.5178 133.011 54.1148 135.574 44.467 137.427C29.8048 140.237 14.9432 141.39 0 142.594H0.00906749Z" fill="#F9F9F9"/>
</svg>
