<svg width="34" height="34" viewBox="0 0 34 34" fill="none" xmlns="http://www.w3.org/2000/svg">
<path d="M23.7576 22.9827C24.3724 23.3238 25.0179 23.6233 25.6947 23.8746C26.5432 24.1895 29.3925 25.0051 29.3925 25.0051L31.5831 25.5632V32.0002C31.5831 32.6905 31.0234 33.2502 30.3331 33.2502H22.4164L22.4164 31.8546C22.4158 29.5379 22.4148 26.0986 23.7576 22.9827Z" fill="#5F398E"/>
<path d="M8.11906 21.2504C8.26596 20.9038 8.40994 20.5401 8.54815 20.1625C9.29199 18.1304 9.91693 15.5685 9.91693 12.8834H7.41693C7.41693 15.1983 6.87395 17.4634 6.20049 19.3031C5.70091 20.6679 5.15474 21.7318 4.75431 22.3746C4.39196 22.4739 3.97496 22.5855 3.97496 22.5855L2.41634 22.9826V3.25H0.333008V0.75H33.6663V3.25H31.583V22.9826L30.0244 22.5855C30.0244 22.5855 29.6082 22.4741 29.246 22.3749C28.8456 21.7321 28.2992 20.668 27.7994 19.3027C27.126 17.463 26.583 15.1979 26.583 12.883H24.083C24.083 15.5681 24.7079 18.13 25.4518 20.1621C25.5901 20.54 25.7342 20.904 25.8812 21.2509C22.5854 19.7781 20.1138 16.815 18.4543 13.4677C17.8795 12.3086 17.3939 11.0876 16.9997 9.84088C16.6055 11.0876 16.1198 12.3086 15.5451 13.4677C13.8857 16.8147 11.4144 19.7776 8.11906 21.2504Z" fill="#5F398E"/>
<path d="M8.30469 23.8746C8.98152 23.6233 9.62699 23.3238 10.2418 22.9827C11.5846 26.0986 11.5836 29.5379 11.583 31.8546L11.583 33.2502H3.66634C2.97599 33.2502 2.41634 32.6905 2.41634 32.0002V25.5632L4.60688 25.0051C4.60688 25.0051 7.4562 24.1895 8.30469 23.8746Z" fill="#5F398E"/>
</svg>
