<svg width="208" height="48" viewBox="0 0 208 48" fill="none" xmlns="http://www.w3.org/2000/svg">
<path d="M151.355 0C151.489 0 151.623 0.0021951 151.757 0.0021951C163.709 0.0021951 175.664 0.0021951 187.616 0.0021951C187.675 0.0482922 187.684 0.114145 187.686 0.182193C187.686 0.316094 187.684 0.449995 187.684 0.583897C187.684 2.38827 187.686 4.19484 187.689 5.99921C187.689 6.31969 187.653 6.33067 188.029 6.28457C188.561 6.21872 189.09 6.1375 189.626 6.12652C190.554 6.10677 191.483 6.0936 192.408 6.15506C193.757 6.24286 195.08 6.48871 196.378 6.86188C198.938 7.59285 201.262 8.7782 203.345 10.4333C204.624 11.4496 205.762 12.6021 206.746 13.906C206.867 14.0662 206.983 14.2286 207.159 14.3384C207.221 14.3779 207.271 14.4438 207.311 14.5074C207.574 14.9179 207.772 15.3635 207.996 15.7959C208.003 15.8091 207.999 15.8333 207.992 15.8486C207.974 15.8815 207.941 15.8728 207.917 15.864C207.865 15.8398 207.814 15.8135 207.766 15.785C206.155 14.8301 204.545 13.873 202.934 12.9182C202.679 12.7667 202.44 12.5933 202.211 12.4045C200.041 10.6001 197.58 9.38625 194.818 8.79137C194.1 8.63552 193.37 8.53674 192.634 8.47528C191.775 8.40065 190.914 8.41382 190.055 8.44455C189.539 8.46211 189.027 8.54113 188.517 8.61577C187.254 8.80015 186.03 9.12942 184.839 9.57941C183.026 10.2643 181.372 11.2235 179.882 12.4616C179.816 12.5165 179.742 12.5626 179.702 12.6547C179.801 12.6504 179.852 12.5757 179.913 12.5274C180.752 11.8601 181.642 11.2674 182.589 10.7626C184.033 9.99648 185.549 9.43673 187.152 9.11186C187.64 9.01308 188.126 8.9143 188.622 8.87479C188.668 8.8704 188.717 8.85723 188.759 8.89235C188.763 8.89674 188.765 8.90332 188.776 8.92308C188.651 8.97576 188.519 8.99113 188.389 9.01088C187.377 9.16674 186.388 9.41259 185.423 9.76161C185.344 9.79014 185.265 9.82088 185.188 9.8538C185.171 9.86039 185.158 9.87356 185.162 9.86917C185.553 9.77039 185.966 9.66283 186.379 9.55966C186.425 9.54868 186.471 9.5421 186.52 9.53771C186.533 9.53771 186.553 9.55746 186.559 9.57283C186.566 9.58819 186.564 9.61454 186.553 9.62551C186.515 9.67161 186.456 9.68039 186.401 9.69795C185.946 9.84063 185.494 9.99429 185.05 10.1721C184.305 10.4706 183.587 10.8306 182.884 11.217C182.675 11.3311 182.459 11.4387 182.249 11.5484C182.216 11.566 182.183 11.5901 182.128 11.5528C182.721 11.0457 183.389 10.6726 184.077 10.317C183.969 10.3236 183.881 10.3762 183.789 10.4179C182.093 11.206 180.57 12.2465 179.208 13.5262C178.608 14.0903 178.039 14.683 177.503 15.3064C177.422 15.4008 177.334 15.4886 177.248 15.5764C177.222 15.6028 177.186 15.6181 177.154 15.6401C177.085 15.572 177.154 15.5325 177.178 15.4952C177.536 14.975 177.931 14.4833 178.353 14.0157C178.641 13.6952 178.935 13.3835 179.247 13.0872C179.326 13.0104 179.401 12.9291 179.456 12.8282C179.344 12.9269 179.23 13.0213 179.122 13.1223C176.587 15.5106 174.877 18.3818 174.027 21.76C173.886 22.3154 173.777 22.8773 173.702 23.4459C173.686 23.5666 173.676 23.6895 173.702 23.8695C173.812 23.2944 173.895 22.772 174.029 22.2605C174.183 21.67 174.35 21.0817 174.55 20.5044C174.66 20.1905 174.783 19.8788 174.965 19.5957C175.027 19.6374 174.974 19.7076 175.025 19.7515C175.075 19.7339 175.057 19.6791 175.077 19.6439C175.097 19.611 175.108 19.5737 175.123 19.5386C175.842 17.7781 176.828 16.1889 178.14 14.8081C178.891 14.0157 179.707 13.2935 180.585 12.6438C180.829 12.4638 180.922 12.4287 180.915 12.4879C180.9 12.6306 180.761 12.6701 180.673 12.7469C179.298 13.9191 178.085 15.2362 177.079 16.7398C176.343 17.8374 175.703 18.9876 175.224 20.2213C174.836 21.2222 174.572 22.2539 174.423 23.3185C174.317 24.0671 174.253 24.8178 174.271 25.5729C174.299 26.8307 174.486 28.0622 174.833 29.2717C175.26 30.7533 175.798 32.1889 176.519 33.5543C177.982 36.3289 180.082 38.4955 182.78 40.0957C184.448 41.0835 186.239 41.753 188.139 42.1262C188.75 42.2469 189.367 42.3084 189.985 42.3764C190.778 42.4642 191.569 42.451 192.362 42.4203C193.049 42.3918 193.733 42.3062 194.409 42.1788C194.484 42.1657 194.559 42.1459 194.631 42.1218C194.678 42.1064 194.708 42.0647 194.697 42.0098C194.686 41.9549 194.673 41.8979 194.656 41.843C194.592 41.6323 194.524 41.4237 194.46 41.2152C194.431 41.123 194.401 41.033 194.383 40.9408C194.317 40.6115 194.537 40.3306 194.875 40.3108C194.979 40.3042 195.082 40.3108 195.189 40.3108C195.218 40.2011 195.154 40.1176 195.137 40.0298C195.119 39.9464 195.093 39.8652 195.093 39.7774C195.093 39.525 195.253 39.323 195.506 39.2616C195.732 39.2067 195.989 39.312 196.097 39.5118C196.136 39.5864 196.165 39.6698 196.191 39.7511C196.528 40.785 196.864 41.8188 197.2 42.8549C197.58 44.0249 197.958 45.1971 198.336 46.3671C198.377 46.4944 198.417 46.6217 198.443 46.7534C198.5 47.0344 198.366 47.2803 198.112 47.3768C197.857 47.4734 197.591 47.3768 197.452 47.1244C197.38 46.9927 197.329 46.8456 197.272 46.7095C197.198 46.6964 197.167 46.7534 197.13 46.7885C197.059 46.8566 196.98 46.9093 196.89 46.9422C196.67 47.0234 196.446 46.9576 196.297 46.7732C196.222 46.681 196.185 46.5734 196.15 46.4659C196.029 46.0839 195.908 45.702 195.787 45.32C195.754 45.2212 195.721 45.1203 195.682 45.0237C195.642 44.9249 195.605 44.9052 195.508 44.9205C195.319 44.9512 195.132 44.9886 194.943 45.0237C194.304 45.1422 193.667 45.2695 193.028 45.3771C192.641 45.4408 192.25 45.4803 191.861 45.5198C191.07 45.601 190.277 45.6032 189.481 45.5878C188.849 45.5747 188.222 45.5044 187.598 45.4188C186.658 45.2915 185.735 45.0983 184.83 44.813C182.224 43.9898 179.902 42.664 177.846 40.8662C176.196 39.424 174.825 37.7601 173.728 35.8679C172.819 34.2962 172.151 32.6258 171.685 30.8741C171.661 30.7819 171.632 30.6919 171.604 30.6019C171.601 30.5931 171.59 30.5887 171.579 30.5799C171.525 30.6655 171.536 30.7621 171.529 30.8543C171.522 30.9399 171.529 31.0255 171.529 31.1111C171.529 34.474 171.52 37.8369 171.533 41.1976C171.538 42.0757 171.511 42.9559 171.571 43.8317C171.617 44.5408 171.744 45.2322 172.023 45.8908C172.12 46.119 172.236 46.3386 172.362 46.5537C172.632 47.0212 173.012 47.3746 173.482 47.6337C173.634 47.7171 173.788 47.7895 173.941 47.8685C173.974 47.8861 174.018 47.9037 174.016 47.9432C174.009 48.009 173.948 47.9959 173.904 47.998C173.827 48.0024 173.75 47.998 173.676 47.998C170.835 47.998 167.994 47.998 165.153 47.998C165.052 47.998 164.949 47.9937 164.848 47.9915C164.837 47.9124 164.889 47.8927 164.927 47.8729C165.052 47.8027 165.177 47.7346 165.305 47.671C165.849 47.3944 166.267 46.9861 166.561 46.4527C166.843 45.939 167.034 45.3903 167.15 44.8152C167.284 44.1566 167.324 43.4915 167.328 42.822C167.328 42.7452 167.328 42.6683 167.328 42.5937C167.328 30.119 167.328 17.642 167.328 5.16726C167.328 4.26508 167.24 3.37606 166.983 2.5068C166.858 2.08095 166.891 2.13144 166.478 2.12705C165.454 2.11827 164.43 2.11608 163.408 2.11827C162.835 2.11827 162.262 2.12047 161.688 2.14022C159.432 2.21486 157.276 2.70217 155.259 3.73386C154.203 4.27386 153.267 4.97849 152.498 5.88945C152.12 6.33725 151.801 6.82237 151.54 7.347C151.476 7.47431 151.421 7.60822 151.324 7.71578C151.316 7.72675 151.292 7.72675 151.274 7.72895C151.252 7.72895 151.241 7.71578 151.241 7.69163C151.241 7.6148 151.234 7.54017 151.234 7.46334C151.234 5.08385 151.234 2.70656 151.234 0.32707C151.234 0.241461 151.237 0.155852 151.248 0.0702432C151.256 0.0109755 151.309 0.0065853 151.357 0.0087804L151.355 0ZM174.209 22.2583C174.218 22.3351 174.201 22.4098 174.183 22.4844C173.902 23.6588 173.752 24.8485 173.746 26.058C173.746 26.249 173.741 26.44 173.739 26.6309C173.739 26.7078 173.746 26.7846 173.693 26.8505C173.596 26.9734 173.599 27.1161 173.616 27.2609C173.665 27.6868 173.702 28.117 173.761 28.5407C173.941 29.8116 174.258 31.0475 174.715 32.2482C175.365 33.9582 176.264 35.5233 177.408 36.9523C177.424 36.9721 177.441 36.9984 177.472 36.9677C177.241 36.2609 177.312 36.4189 176.987 35.9448C174.934 32.9616 173.908 29.6602 173.878 26.0449C173.867 24.7783 174.027 23.5315 174.282 22.2956C174.33 22.1047 174.379 21.9159 174.425 21.7249C174.431 21.6986 174.423 21.6634 174.392 21.6634C174.372 21.6634 174.341 21.692 174.332 21.7139C174.26 21.8895 174.247 22.0783 174.207 22.2627L174.209 22.2583ZM171.586 21.2134C171.621 21.0861 171.652 20.9873 171.678 20.8886C172.061 19.4025 172.614 17.9823 173.326 16.6257C174.915 13.6052 177.127 11.1423 179.968 9.24795C181.196 8.42918 182.497 7.7487 183.892 7.2548C184.659 6.98481 185.448 6.79164 186.234 6.59408C186.392 6.55457 186.548 6.51725 186.706 6.47554C186.816 6.44701 186.825 6.41628 186.761 6.3153C186.726 6.25823 186.687 6.20335 186.647 6.15067C186.315 5.6897 185.929 5.28141 185.491 4.92141C184.766 4.31996 183.973 3.82606 183.114 3.44192C181.231 2.599 179.247 2.19949 177.191 2.13144C176.56 2.11169 175.93 2.10949 175.297 2.10949C174.313 2.10949 173.326 2.11388 172.342 2.11827C172.276 2.11827 172.208 2.11827 172.142 2.12266C171.993 2.12925 171.993 2.12925 171.942 2.27193C171.727 2.90851 171.599 3.56265 171.558 4.23215C171.503 5.11897 171.525 6.00799 171.522 6.897C171.511 11.4826 171.516 16.0681 171.516 20.6537C171.516 20.7305 171.511 20.8073 171.516 20.882C171.525 20.9852 171.516 21.0905 171.577 21.2178L171.586 21.2134ZM174.937 19.9688C174.783 20.2235 174.502 21.1059 174.453 21.4747C174.647 20.9588 174.789 20.4956 174.937 19.9688ZM184.496 10.1062C184.435 10.1326 184.373 10.1589 184.283 10.1962C184.402 10.216 184.459 10.1655 184.496 10.1062ZM184.949 9.97234C184.949 9.97234 184.949 9.94819 184.947 9.946C184.931 9.93722 184.911 9.92185 184.898 9.92624C184.846 9.94161 184.795 9.96356 184.744 9.98551C184.712 10.0009 184.676 10.0272 184.701 10.0667C184.709 10.0821 184.749 10.0865 184.775 10.0865C184.857 10.0865 184.911 10.0404 184.949 9.97234Z" fill="#48296F"/>
<path d="M200.948 35.4781C201.05 35.5289 201.072 35.6216 201.103 35.7144C201.287 36.3082 201.476 36.902 201.662 37.4959C201.734 37.7233 201.81 37.9506 201.877 38.1824C201.927 38.3546 201.91 38.3966 201.758 38.4893C201.669 38.5423 201.573 38.5842 201.48 38.6328C201.287 38.7321 201.092 38.8315 200.901 38.9352C200.838 38.9705 200.764 38.9948 200.723 39.0677C200.753 39.1273 200.803 39.1008 200.842 39.0942C201.179 39.0434 201.515 38.9926 201.849 38.9374C202.09 38.8977 202.099 38.8933 202.181 39.1273C202.285 39.4253 202.379 39.7277 202.472 40.0302C202.769 40.9706 203.064 41.911 203.357 42.8537C203.444 43.1341 203.44 43.1451 203.19 43.2775C202.754 43.5049 202.313 43.7235 201.875 43.9509C201.775 44.0016 201.667 44.0392 201.589 44.1253C201.6 44.1893 201.645 44.1628 201.673 44.165C201.702 44.1672 201.73 44.1628 201.758 44.1584C202.157 44.0921 202.559 44.0259 202.958 43.9597C203.145 43.9288 203.331 43.9023 203.518 43.8714C203.605 43.8559 203.663 43.8868 203.698 43.9707C203.72 44.0237 203.744 44.0767 203.761 44.1319C203.876 44.4829 203.833 44.4343 203.585 44.569C203.399 44.6727 203.199 44.7566 203.025 44.8758C203.04 44.9487 203.086 44.931 203.116 44.9266C203.351 44.8913 203.583 44.8538 203.815 44.8184C203.935 44.8008 203.967 44.8184 204.015 44.9244C204.034 44.9686 204.05 45.0127 204.063 45.0591C204.167 45.3946 204.167 45.3924 203.878 45.5734C203.802 45.622 203.702 45.6441 203.655 45.7655C203.817 45.75 203.965 45.739 204.11 45.7235C204.184 45.7169 204.236 45.7412 204.269 45.8141C204.438 46.2004 204.564 46.6022 204.655 47.015C204.677 47.1121 204.638 47.1651 204.54 47.1651C204.332 47.1651 204.126 47.1541 203.917 47.1408C203.522 47.1165 203.127 47.0768 202.73 47.0591C201.927 47.0238 201.129 46.9642 200.33 46.8914C200.02 46.8627 199.709 46.845 199.397 46.8406C199.256 46.8384 199.195 46.7744 199.156 46.6529C198.989 46.154 198.809 45.6573 198.65 45.1562C198.177 43.6683 197.713 42.1782 197.244 40.6903C197.092 40.2068 196.936 39.7233 196.777 39.2421C196.695 38.9926 196.717 39.0147 196.877 38.88C197.643 38.2398 198.409 37.5996 199.175 36.9594C199.716 36.5091 200.254 36.0565 200.794 35.6062C200.844 35.5642 200.899 35.5267 200.948 35.487V35.4781ZM199.614 40.6461C199.573 40.6196 199.551 40.5975 199.527 40.5909C199.097 40.443 199.225 40.3922 198.978 40.7896C198.937 40.8558 198.948 40.8934 199.013 40.9243C199.106 40.9684 199.202 41.0059 199.295 41.0501C199.36 41.081 199.403 41.0523 199.432 40.9971C199.488 40.8889 199.544 40.7786 199.612 40.6483L199.614 40.6461ZM201.144 45.1518C201.124 45.1739 201.107 45.1849 201.098 45.2004C201.031 45.3505 201.053 45.4035 201.194 45.4498C201.209 45.4542 201.231 45.4564 201.244 45.4498C201.32 45.4101 201.33 45.2644 201.259 45.2136C201.222 45.1871 201.179 45.1717 201.142 45.1518H201.144Z" fill="#48296F"/>
<path d="M6.17205 17.1788C6.17205 15.208 6.17205 13.2372 6.17205 11.2637C6.17205 11.2029 6.17205 11.1421 6.17205 11.084C6.16653 10.8933 6.16102 10.8878 5.96512 10.874C5.15117 10.8187 4.33447 10.8076 3.51777 10.838C2.85834 10.8629 2.19891 10.8215 1.53947 10.7855C1.51464 10.7855 1.49257 10.78 1.46774 10.7772C1.28288 10.7524 1.24701 10.7247 1.21942 10.5312C1.19182 10.3405 1.16975 10.1498 1.16699 9.95632C1.16699 9.72966 1.18907 9.50025 1.19734 9.2736C1.2001 9.17409 1.24701 9.11881 1.33806 9.09117C1.53396 9.03312 1.73261 8.99719 1.93955 8.99719C3.30808 9.00272 4.6766 8.99719 6.04513 8.99719C8.05102 8.99719 10.0541 8.99719 12.06 8.99719C12.278 8.99719 12.4905 9.01931 12.7029 9.06906C12.7691 9.08564 12.805 9.12434 12.816 9.19068C12.9098 9.6578 12.8988 10.1222 12.816 10.5893C12.8022 10.6694 12.7553 10.7109 12.6781 10.7358C12.4242 10.8132 12.1594 10.827 11.8972 10.8491C11.8255 10.8546 11.7538 10.8574 11.682 10.8519C10.915 10.7938 10.148 10.838 9.37816 10.8436C9.05534 10.8436 8.72976 10.838 8.40695 10.827C8.24968 10.8215 8.16138 10.8961 8.10068 11.0288C8.01239 11.2195 7.97652 11.4157 7.99584 11.6258C8.0455 12.1648 8.02619 12.7065 8.02619 13.2483C8.02343 16.3496 8.01515 19.4508 8.00687 22.5521C8.00687 22.9003 7.99308 23.2486 7.97928 23.5969C7.97376 23.7434 7.95721 23.7572 7.82201 23.8014C7.63715 23.8622 7.44677 23.8843 7.25363 23.8816C7.02462 23.8816 6.79837 23.8622 6.56937 23.865C6.4121 23.865 6.3238 23.7904 6.2631 23.6604C6.19688 23.5167 6.16929 23.3647 6.17205 23.2044C6.17757 22.9639 6.18309 22.7234 6.18309 22.483C6.18309 20.7167 6.18309 18.9477 6.18309 17.1815H6.17205V17.1788Z" fill="#48296F"/>
<path d="M0.556641 38.0831C0.647692 38.0748 0.667006 38.0029 0.680801 37.9338C0.713911 37.7818 0.735984 37.6243 0.777371 37.475C0.8767 37.1295 1.06984 36.8448 1.35955 36.6292C1.4368 36.5712 1.51958 36.5214 1.60511 36.4827C1.85343 36.3721 1.96931 36.4053 2.12383 36.6264C2.36387 36.9719 2.60116 37.3175 2.83844 37.6657C2.87155 37.7155 2.9019 37.768 2.9157 37.826C2.93777 37.9117 2.83016 38.0057 2.74463 37.9864C2.4025 37.909 2.12658 38.025 1.92241 38.3346C1.80653 38.5087 1.74583 38.705 1.71547 38.9068C1.66857 39.2163 1.65753 39.5287 1.6934 39.841C1.74858 40.3081 1.9638 40.6813 2.3418 40.9605C2.67841 41.2092 3.06193 41.3364 3.47028 41.4027C3.98624 41.4856 4.49944 41.4442 5.01263 41.3612C5.33269 41.3087 5.64723 41.2341 5.94522 41.1014C6.61293 40.8057 7.00197 40.2971 7.11233 39.5701C7.19235 39.045 7.21442 38.517 7.22821 37.9891C7.25029 37.124 7.1951 36.2588 7.16751 35.3937C7.15924 35.1366 7.1344 34.8906 6.94954 34.6888C6.90815 34.6446 6.87505 34.5893 6.92471 34.5285C6.97162 34.4732 7.02956 34.429 7.10957 34.4428C7.14544 34.4484 7.17855 34.4622 7.21166 34.476C7.7083 34.6861 8.20495 34.9017 8.70435 35.1062C8.81747 35.1532 8.83679 35.2195 8.83679 35.3273C8.82851 35.8193 8.83955 36.3141 8.81471 36.8061C8.80092 37.0659 8.91404 37.2124 9.11822 37.3257C9.40793 37.4861 9.72523 37.5524 10.0508 37.5745C10.3378 37.5939 10.6275 37.6021 10.9144 37.6021C15.696 37.6021 20.4748 37.6021 25.2564 37.6021C25.6399 37.6021 26.0234 37.6132 26.4097 37.6187C26.4925 37.6187 26.578 37.6187 26.6608 37.6077C26.7104 37.6021 26.7435 37.5635 26.7518 37.5109C26.7601 37.4639 26.7628 37.417 26.7628 37.3672C26.7684 36.8503 26.7766 36.3335 26.7822 35.8166C26.7822 35.695 26.7656 35.5761 26.7325 35.46C26.6884 35.3108 26.6221 35.1919 26.4455 35.1864C26.4124 35.1864 26.3766 35.1698 26.3462 35.1532C26.2772 35.1117 26.2634 34.9846 26.3214 34.9321C26.3573 34.8989 26.3959 34.874 26.4345 34.8436C26.8732 34.5258 27.3119 34.2107 27.7479 33.89C27.9106 33.7712 27.9493 33.7242 28.1286 33.9453C28.3273 34.1858 28.4183 34.465 28.4183 34.7801C28.4183 35.4655 28.4183 36.151 28.4183 36.8365C28.4183 36.8835 28.4183 36.9332 28.4183 36.9802C28.4266 37.417 28.3383 37.4031 28.8432 37.5192C29.1992 37.5994 29.5578 37.5994 29.9193 37.5994C32.0686 37.6021 34.2208 37.5994 36.3701 37.5994C36.8144 37.5994 37.2586 37.5994 37.7028 37.5994C37.8877 37.5994 37.9401 37.5579 37.9622 37.3755C37.9953 37.1129 38.0229 36.8503 38.0284 36.585C38.0642 35.0454 38.056 33.5058 38.0422 31.9663C38.0366 31.4383 38.0339 30.9076 38.0311 30.3797C38.0284 30.0231 38.1553 29.7246 38.4036 29.4703C38.4809 29.3902 38.5278 29.3846 38.6243 29.4537C39.121 29.8131 39.6176 30.1724 40.1115 30.5345C40.2053 30.6036 40.175 30.775 40.0591 30.786C39.7445 30.8137 39.7059 31.032 39.6949 31.2697C39.6838 31.5212 39.6894 31.7755 39.6921 32.0271C39.6976 33.3013 39.7059 34.5755 39.7114 35.8525C39.7114 36.3224 39.7032 36.7895 39.7032 37.2594C39.7032 37.4833 39.7059 37.4833 39.9377 37.5358C40.1501 37.5856 40.3681 37.5828 40.5833 37.5966C40.702 37.6049 40.8234 37.6021 40.9448 37.6021C45.616 37.6021 50.2899 37.6021 54.9611 37.6021C55.4771 37.6021 55.4054 37.6491 55.4081 37.1654C55.4109 36.5408 55.4081 35.9133 55.4081 35.2886C55.4081 35.1449 55.4081 34.9984 55.433 34.8575C55.5102 34.3848 55.7503 34.0144 56.1476 33.7352C57.1298 33.0442 58.1066 32.3449 59.086 31.6484C59.6434 31.2504 60.2035 30.8551 60.7553 30.4516C61.0119 30.2636 61.2906 30.189 61.5996 30.2083C61.71 30.2139 61.7348 30.236 61.7541 30.3631C61.8259 30.8745 61.8976 31.3858 61.9693 31.8999C61.9886 32.0298 62.008 32.1625 62.0245 32.2924C62.03 32.3449 62.0052 32.3836 61.9583 32.4057C61.9003 32.4334 61.8341 32.45 61.7955 32.3919C61.7348 32.3007 61.6796 32.2012 61.561 32.1874C61.423 32.1708 61.3044 32.2344 61.1885 32.2979C61.1471 32.3201 61.1057 32.3477 61.0643 32.3726C59.8338 33.1437 58.6032 33.9177 57.3726 34.6916C57.2954 34.7386 57.1905 34.7635 57.1657 34.8906C57.3699 34.8906 57.5713 34.8906 57.7699 34.8906C58.8626 34.8823 59.9552 34.8713 61.0478 34.8685C61.5996 34.8685 62.1514 34.8796 62.706 34.8823C62.8385 34.8823 62.9709 34.8768 63.1006 34.8547C63.2165 34.8326 63.3268 34.7828 63.4455 34.7441C63.5255 34.7828 63.5062 34.8602 63.5062 34.9293C63.5062 36.3721 63.5062 37.815 63.5062 39.2606C63.5062 39.3076 63.5062 39.3573 63.5034 39.4043C63.4869 39.5342 63.3434 39.6088 63.2413 39.5259C63.0564 39.3739 62.8385 39.3214 62.6094 39.291C62.3832 39.2606 62.1542 39.2523 61.9279 39.2523C54.9253 39.2523 47.9226 39.2523 40.9199 39.2578C40.4123 39.2578 39.946 39.1694 39.5266 38.9068C39.3803 39.0422 39.2396 39.1721 39.1017 39.302C38.9996 39.3988 38.9003 39.4485 38.7485 39.3988C38.3098 39.2523 37.8545 39.2495 37.3965 39.2495C34.9354 39.255 32.4715 39.2523 30.0103 39.2495C29.8669 39.2495 29.7234 39.2495 29.5772 39.2385C29.2488 39.2191 28.9398 39.1334 28.6556 38.9648C28.5977 38.9289 28.5452 38.8653 28.4597 38.893C28.399 38.9897 28.4349 39.1003 28.4266 39.2053C28.4211 39.2661 28.4266 39.3269 28.4211 39.385C28.4045 39.5093 28.2417 39.5923 28.1479 39.5149C27.8665 39.2827 27.5354 39.2606 27.196 39.2606C26.4649 39.2578 25.7309 39.2578 24.9998 39.255C24.8425 39.255 24.688 39.2495 24.5307 39.2495C19.9312 39.2495 15.329 39.2495 10.7295 39.2495C10.5005 39.2495 10.2771 39.2274 10.0508 39.1749C9.60106 39.0671 9.23134 38.8432 8.96371 38.459C8.9306 38.412 8.90852 38.3512 8.8423 38.3374C8.7816 38.3595 8.7954 38.412 8.7954 38.4562C8.78988 38.6718 8.78436 38.8902 8.78712 39.1058C8.78988 39.9184 8.52225 40.6454 8.03388 41.2811C7.47654 42.008 6.75088 42.5028 5.85693 42.7294C5.77139 42.7516 5.65827 42.7322 5.60861 42.84H4.81674C4.745 42.7599 4.64291 42.7709 4.55186 42.7488C4.32009 42.6907 4.08281 42.6465 3.85656 42.5774C3.0233 42.3259 2.33352 41.8394 1.71272 41.2424C1.13882 40.6896 0.782889 40.0317 0.700115 39.2329C0.68632 39.1003 0.661488 38.9731 0.567677 38.8708V38.0776L0.556641 38.0831ZM55.524 37.5303C55.5323 37.5552 55.5433 37.58 55.5516 37.6049H55.9075C57.6844 37.6049 59.4613 37.6077 61.2382 37.6021C61.4948 37.6021 61.7596 37.663 62.0135 37.5552C62.0631 37.2815 62.0135 37.0051 62.0245 36.7315C62.0245 36.7204 62.0245 36.7066 62.019 36.6955C62.008 36.6264 61.9638 36.5905 61.8976 36.5877C61.8148 36.5822 61.7293 36.585 61.6465 36.585C60.3249 36.585 59.0033 36.585 57.6844 36.585C57.4444 36.585 57.2043 36.6099 56.967 36.6458C56.8236 36.6679 56.6856 36.7066 56.5587 36.7785C56.1807 36.9885 55.8523 37.2594 55.524 37.5358V37.5303Z" fill="#48296F"/>
<path d="M142.469 31.878C142.434 31.8586 142.406 31.8697 142.378 31.8973C142.08 32.1765 141.805 32.4778 141.6 32.8371C141.567 32.8979 141.545 32.9725 141.446 33.014C141.015 32.721 140.571 32.4197 140.127 32.1157C139.812 32.3617 139.636 32.6906 139.434 32.9974C139.332 33.0085 139.274 32.9421 139.208 32.8979C138.841 32.6491 138.474 32.3976 138.107 32.1461C137.958 32.0438 137.953 32.0162 138.019 31.8476C138.121 31.5905 138.251 31.3473 138.433 31.1344C138.568 30.9769 138.723 30.847 138.905 30.7475C139.147 30.6148 139.164 30.6148 139.377 30.7972C139.65 31.0322 139.92 31.2699 140.185 31.5021C140.301 31.4634 140.326 31.3583 140.378 31.2837C140.563 31.0266 140.789 30.8166 141.082 30.6811C141.181 30.6341 141.261 30.648 141.344 30.7198C141.669 31.0045 141.995 31.2865 142.323 31.5684C142.365 31.6043 142.395 31.6679 142.467 31.6568V31.8724L142.469 31.878Z" fill="#48296F"/>
<path d="M114.316 36.397C114.382 36.303 114.396 36.1952 114.429 36.0985C114.537 35.7889 114.686 35.5042 114.892 35.2471C115.097 34.9928 115.351 34.8298 115.673 34.7689C116.026 34.7026 116.382 34.6446 116.744 34.6252C117.607 34.5727 118.471 34.5478 119.335 34.5672C120.08 34.5838 120.825 34.5727 121.57 34.581C121.801 34.5838 122.022 34.5451 122.232 34.4428C122.315 34.5174 122.284 34.6059 122.284 34.6805C122.284 35.413 122.284 36.1482 122.284 36.8807C122.284 36.9636 122.284 37.0493 122.284 37.1322C122.284 37.1958 122.317 37.2511 122.37 37.2815C122.464 37.334 122.557 37.392 122.657 37.428C122.883 37.5109 123.117 37.5689 123.357 37.58C123.644 37.5938 123.934 37.6049 124.221 37.6049C128.989 37.6049 133.759 37.6049 138.527 37.6049C138.9 37.6049 139.272 37.6159 139.645 37.6214C139.727 37.6214 139.813 37.6214 139.896 37.6214C140.009 37.6159 140.047 37.58 140.059 37.4722C140.067 37.3754 140.07 37.2787 140.07 37.1847C140.075 36.7508 140.075 36.3196 140.081 35.8856C140.081 35.7391 140.07 35.5982 140.028 35.4572C139.984 35.3052 139.912 35.1946 139.733 35.1946C139.711 35.1946 139.686 35.1863 139.664 35.178C139.576 35.1338 139.554 34.9984 139.623 34.932C139.631 34.9237 139.642 34.9182 139.65 34.9099C140.147 34.5506 140.641 34.1913 141.137 33.8292C141.212 33.7767 141.273 33.7988 141.33 33.8513C141.559 34.0669 141.675 34.3378 141.711 34.6473C141.719 34.7303 141.714 34.8159 141.714 34.8989C141.714 36.3058 141.714 37.7127 141.714 39.1223C141.714 39.2052 141.719 39.2909 141.711 39.3738C141.697 39.5176 141.532 39.6033 141.422 39.5093C141.148 39.2854 140.828 39.2661 140.503 39.2661C139.772 39.2605 139.038 39.2633 138.306 39.2605C138.149 39.2605 137.995 39.255 137.837 39.255C133.238 39.255 128.636 39.255 124.036 39.255C123.807 39.255 123.584 39.2329 123.357 39.1776C123.024 39.0974 122.726 38.9537 122.477 38.716C122.436 38.6745 122.389 38.6386 122.35 38.6027C122.262 38.6331 122.284 38.7022 122.281 38.7575C122.279 38.962 122.284 39.1665 122.279 39.3711C122.273 39.5369 122.108 39.6171 121.978 39.512C121.81 39.3794 121.619 39.3269 121.415 39.2965C121.175 39.2633 120.938 39.2522 120.698 39.2522C115.486 39.2522 110.271 39.2522 105.059 39.2522C104.819 39.2522 104.579 39.2522 104.342 39.1997C104.079 39.1417 103.839 39.0422 103.616 38.8957C103.555 38.857 103.497 38.8929 103.495 38.9648C103.492 39.0974 103.495 39.2301 103.489 39.3628C103.481 39.5148 103.323 39.6088 103.21 39.5148C102.937 39.2882 102.617 39.2688 102.292 39.2661C101.56 39.2605 100.826 39.2633 100.095 39.2605C99.938 39.2605 99.7835 39.255 99.6262 39.255C97.3555 39.255 95.0847 39.255 92.8167 39.255C92.5877 39.255 92.3614 39.255 92.1352 39.2025C91.9227 39.1527 91.7158 39.0919 91.5337 38.9703C91.2743 38.7989 91.2964 38.9123 91.2964 39.1223C91.2964 39.2052 91.2992 39.2909 91.2964 39.3738C91.2854 39.5203 91.1281 39.606 91.0095 39.512C90.7363 39.2937 90.4163 39.2716 90.0879 39.2688C89.3429 39.2633 88.6007 39.2633 87.8558 39.2633C87.6764 39.2633 87.4943 39.2578 87.315 39.2578C85.116 39.2578 82.9197 39.2522 80.7207 39.2578C80.2075 39.2578 79.7136 39.2025 79.2776 38.9067C79.2032 38.857 79.1424 38.8901 79.0873 38.9454C78.9686 39.0643 78.85 39.1831 78.7286 39.302C78.6762 39.3517 78.6265 39.4043 78.5741 39.4512C78.4472 39.5618 78.3202 39.5729 78.2347 39.4374C78.1326 39.2771 77.9974 39.255 77.8374 39.255C77.7408 39.255 77.6442 39.255 77.5504 39.255C75.4121 39.2578 73.2738 39.2605 71.1355 39.2661C70.8126 39.2661 70.4871 39.2716 70.1642 39.2826C69.9656 39.2882 69.7835 39.2439 69.6069 39.1638C69.2648 39.0118 68.9502 38.8155 68.6578 38.5833C68.0204 38.0803 67.4989 37.4667 67.0161 36.8226C66.9554 36.7425 66.9278 36.6568 66.9333 36.5545C66.9692 35.8082 67.1458 35.1062 67.5651 34.4787C67.8052 34.1194 68.0839 33.8706 68.506 33.6274C68.6302 33.702 68.7654 33.7794 68.8978 33.8596C69.3089 34.1083 69.72 34.3571 70.1284 34.6086C70.2636 34.6916 70.2801 34.7441 70.2249 34.8712C70.1946 34.9403 70.1532 34.9928 70.0649 34.9873C69.9573 34.9818 69.8497 34.9873 69.7393 34.9873C69.5352 34.9873 69.3696 35.0647 69.2372 35.2223C69.0496 35.4434 68.884 35.6783 68.7598 35.9409C68.5502 36.3887 68.4039 36.8586 68.346 37.3533C68.3322 37.4805 68.357 37.5247 68.4895 37.5496C68.6191 37.5717 68.7516 37.5855 68.884 37.5855C69.411 37.5883 69.9408 37.5855 70.4705 37.5855C71.3231 37.5855 72.1757 37.5883 73.0282 37.5883C73.122 37.5883 73.2214 37.6076 73.3124 37.5634C73.3566 37.4888 73.3014 37.428 73.2903 37.3616C73.2545 37.0825 73.2655 36.8061 73.3704 36.5435C73.8477 35.3301 74.6368 34.4013 75.8425 33.8568C76.0853 33.7463 76.3392 33.6772 76.6013 33.6329C76.9379 33.5749 77.2745 33.6053 77.6001 33.7048C78.0636 33.8485 78.4913 34.0641 78.8665 34.3737C79.3687 34.7855 79.6612 35.3273 79.8322 35.9437C79.8681 36.0708 79.8874 36.2007 79.9178 36.3306C79.9398 36.4357 79.9095 36.5131 79.824 36.5822C79.595 36.7591 79.3715 36.9415 79.148 37.1212C79.0928 37.1654 79.0404 37.2151 78.9935 37.2566C79.0183 37.3533 79.0955 37.3727 79.159 37.4003C79.4156 37.5109 79.686 37.5689 79.9619 37.5828C80.2268 37.5966 80.4889 37.6076 80.7538 37.6076C83.1791 37.6076 85.6071 37.6076 88.0324 37.6076C88.4407 37.6076 88.8491 37.6187 89.2574 37.6242C89.3402 37.6242 89.4257 37.6242 89.5085 37.6242C89.5913 37.6242 89.6437 37.5883 89.6465 37.4971C89.6465 37.4611 89.6492 37.4252 89.6492 37.3893C89.6547 36.8724 89.6603 36.3555 89.663 35.8386C89.663 35.6949 89.663 35.5484 89.6051 35.413C89.5582 35.2941 89.4919 35.2001 89.3485 35.1974C89.3126 35.1974 89.274 35.1891 89.2436 35.1753C89.1664 35.1338 89.1498 34.9873 89.2188 34.932C89.3126 34.8574 89.4119 34.7883 89.5085 34.7192C89.8975 34.4373 90.2838 34.1526 90.6756 33.8734C90.8163 33.7711 90.8605 33.7767 90.9764 33.9093C91.1916 34.1526 91.3019 34.4345 91.3019 34.7634C91.2992 35.5208 91.2992 36.2781 91.3019 37.0382C91.3019 37.4252 91.2274 37.4086 91.702 37.5219C92.091 37.6159 92.4884 37.6104 92.8857 37.6104C95.3468 37.6131 97.8107 37.6104 100.272 37.6104C100.669 37.6104 101.064 37.6242 101.461 37.6242C101.856 37.6242 101.839 37.6601 101.845 37.2649C101.85 36.795 101.861 36.3279 101.867 35.858C101.867 35.7972 101.861 35.7391 101.856 35.6783C101.853 35.6424 101.845 35.6065 101.839 35.5705C101.809 35.3687 101.748 35.2057 101.494 35.1836C101.359 35.1725 101.329 34.9984 101.439 34.9127C101.61 34.78 101.787 34.6556 101.963 34.5285C102.275 34.3018 102.584 34.0752 102.896 33.8513C103.006 33.7739 103.05 33.7767 103.141 33.8706C103.37 34.1056 103.492 34.3848 103.492 34.7137C103.492 35.2057 103.492 35.7004 103.492 36.1924C103.492 36.5296 103.492 36.8669 103.492 37.2041C103.492 37.3948 103.5 37.4031 103.677 37.4611C103.884 37.5275 104.093 37.5717 104.311 37.5828C104.562 37.5938 104.816 37.6076 105.067 37.6076C107.47 37.6076 109.871 37.6076 112.274 37.6076C112.31 37.6076 112.346 37.6076 112.382 37.6076C112.713 37.6104 112.696 37.6021 112.696 37.2898C112.696 36.9056 112.685 36.5186 112.699 36.1344C112.718 35.6341 112.638 35.1532 112.467 34.686C112.445 34.628 112.42 34.5727 112.475 34.523C112.539 34.4621 112.608 34.4207 112.702 34.4649C112.779 34.5008 112.856 34.5312 112.934 34.5644C113.314 34.7385 113.695 34.921 114.079 35.0868C114.211 35.1449 114.258 35.225 114.255 35.3632C114.25 35.6286 114.252 35.8912 114.255 36.1565C114.255 36.2339 114.228 36.3196 114.31 36.3997L114.316 36.397ZM76.5847 37.5883H77.3766C77.7463 37.5883 78.0351 37.4335 78.243 37.1239C78.2954 37.0465 78.3064 36.9774 78.2871 36.889C78.1878 36.4108 77.9395 36.0238 77.5587 35.7225C77.1476 35.3992 76.6785 35.1863 76.1709 35.0702C75.9363 35.0149 75.6963 35.0094 75.4563 35.0426C75.2493 35.0702 75.0617 35.1421 74.8879 35.2527C74.5926 35.4378 74.4354 35.7032 74.4188 36.057C74.3912 36.7314 74.7278 37.193 75.2631 37.5468C75.3514 37.6049 75.448 37.591 75.5418 37.591C75.8894 37.591 76.2371 37.591 76.5847 37.591V37.5883ZM117.599 37.6076C118.535 37.6076 119.47 37.6076 120.402 37.6076C120.499 37.6076 120.593 37.6076 120.689 37.5993C120.761 37.5966 120.794 37.5496 120.792 37.4805C120.789 37.1322 120.786 36.7839 120.778 36.4357C120.778 36.3251 120.742 36.3002 120.618 36.2919C120.571 36.2919 120.521 36.2919 120.474 36.2919C119.119 36.2919 117.765 36.2919 116.413 36.2919C116.184 36.2919 115.958 36.3196 115.734 36.3527C115.442 36.397 115.19 36.5214 114.986 36.7452C114.832 36.9138 114.691 37.0935 114.57 37.2842C114.514 37.3699 114.388 37.4501 114.454 37.5606C114.503 37.6436 114.63 37.5993 114.721 37.5993C115.679 37.5993 116.639 37.5993 117.596 37.5993L117.599 37.6076Z" fill="#48296F"/>
<path d="M140.006 20.9599C140.056 20.7112 140.072 20.5232 140.075 20.3353C140.089 19.7216 140.108 19.108 140.108 18.4972C140.114 16.9217 140.108 15.3462 140.108 13.7707C140.108 12.7839 140.094 11.7999 140.103 10.8131C140.108 10.2714 140.144 9.73239 140.169 9.19341C140.177 9.02756 140.202 9.00822 140.362 9.00545C140.699 9.00269 141.035 9.00545 141.372 9.00545C141.419 9.00545 141.468 9.00545 141.515 9.01374C141.791 9.04968 141.805 9.06349 141.841 9.3399C141.857 9.48363 141.874 9.62736 141.882 9.77109C141.924 10.7081 141.965 11.6451 141.971 12.5821C141.982 14.5059 142.004 16.4297 142.004 18.3534C142.004 19.8571 141.973 21.358 141.951 22.8616C141.946 23.138 141.904 23.4116 141.882 23.6881C141.874 23.7876 141.819 23.8428 141.722 23.8484C141.543 23.8594 141.364 23.8732 141.184 23.876C140.715 23.876 140.249 23.8705 139.78 23.876C139.554 23.876 139.388 23.7765 139.267 23.5968C139.206 23.5084 139.153 23.4116 139.101 23.3177C137.043 19.5973 134.982 15.8769 132.923 12.1565C132.832 11.9906 132.747 11.8165 132.562 11.7004C132.474 11.7833 132.452 11.8828 132.452 11.9879C132.452 12.1813 132.454 12.3721 132.454 12.5655C132.454 13.24 132.449 13.9116 132.449 14.5861C132.449 17.1843 132.449 19.7797 132.449 22.3779C132.449 22.6543 132.468 22.9307 132.452 23.2071C132.416 23.8345 132.377 23.8484 131.781 23.8815C131.494 23.8981 131.204 23.8815 130.917 23.8484C130.81 23.8373 130.749 23.7876 130.719 23.677C130.666 23.489 130.633 23.3038 130.633 23.1104C130.633 22.4719 130.625 21.8361 130.625 21.1976C130.625 17.784 130.625 14.3677 130.625 10.9541C130.625 10.5201 130.631 10.089 130.633 9.655C130.633 9.60802 130.633 9.55826 130.636 9.51127C130.655 9.13259 130.722 9.0635 131.1 9.01374C131.146 9.00822 131.196 9.00545 131.243 9.00545C131.809 9.00545 132.372 9.00545 132.937 9.00269C133.056 9.00269 133.136 9.04138 133.208 9.14089C133.379 9.37307 133.536 9.61354 133.677 9.86507C135.31 12.7922 136.943 15.7193 138.577 18.6437C138.847 19.1274 139.112 19.6111 139.385 20.092C139.551 20.3823 139.719 20.6725 140.006 20.9682V20.9599Z" fill="#48296F"/>
<path d="M40.8644 16.2889C40.8644 14.0389 40.8644 11.789 40.8644 9.54182C40.8644 9.15209 40.7733 9.15209 41.2506 9.04982C41.3665 9.02494 41.4879 9.00559 41.6066 8.9973C42.1005 8.9669 42.5888 8.99454 43.0799 9.0443C43.262 9.06364 43.4028 9.13551 43.5076 9.27647C43.6152 9.4202 43.7173 9.56946 43.8056 9.72701C44.4292 10.8382 45.0472 11.9493 45.668 13.0632C46.9952 15.4458 48.3195 17.8312 49.6522 20.211C49.8343 20.5344 50.0468 20.8412 50.2482 21.1563C50.2564 21.1701 50.2896 21.1757 50.3089 21.1729C50.3392 21.1729 50.3475 21.1508 50.3475 21.1232C50.3475 20.8937 50.3558 20.6671 50.3558 20.4377C50.3585 18.9589 50.3613 17.4802 50.364 15.9986C50.364 13.9173 50.3668 11.836 50.3696 9.75741C50.3696 9.66067 50.3696 9.56393 50.3723 9.46995C50.3916 9.05258 50.342 9.11063 50.7338 9.03876C51.1394 8.96413 51.545 8.98072 51.9505 9.06088C52.0471 9.08023 52.0995 9.12998 52.1189 9.22119C52.1382 9.32622 52.163 9.43402 52.174 9.53905C52.1823 9.63303 52.1768 9.73254 52.1768 9.82652C52.1768 14.3015 52.1768 18.7765 52.1768 23.2487C52.1768 23.7075 52.2568 23.6412 51.7464 23.7905C51.5394 23.8513 51.3242 23.8706 51.1063 23.8817C50.6372 23.901 50.1709 23.8623 49.7074 23.7988C49.6301 23.7877 49.5722 23.7573 49.5363 23.6882C49.4949 23.6136 49.4535 23.5417 49.4121 23.4698C47.9967 20.985 46.6282 18.4752 45.2431 15.971C44.4981 14.6249 43.7477 13.2843 42.9972 11.941C42.9503 11.8581 42.9006 11.7752 42.8482 11.695C42.8399 11.6812 42.804 11.6729 42.7875 11.6784C42.7709 11.684 42.7489 11.7088 42.7461 11.7254C42.7351 11.7724 42.7323 11.8194 42.7323 11.8691C42.7047 12.6873 42.6882 13.5027 42.6992 14.3209C42.7075 15.0671 42.7019 15.8134 42.6992 16.557C42.6992 16.8223 42.6937 17.0849 42.6937 17.3502C42.6937 19.274 42.6937 21.1978 42.6937 23.1243C42.6937 23.2929 42.6799 23.4615 42.6716 23.6274C42.6688 23.7075 42.6247 23.7601 42.5447 23.7822C42.346 23.8375 42.1474 23.8761 41.9432 23.8789C41.6673 23.8817 41.3914 23.8789 41.1182 23.8292C41.0106 23.8098 40.9499 23.7573 40.9278 23.6467C40.8892 23.4588 40.8699 23.2681 40.8699 23.0746C40.8699 20.8136 40.8699 18.5526 40.8699 16.2916L40.8644 16.2889Z" fill="#48296F"/>
<path d="M54.3348 16.2638C54.3348 14.0139 54.3348 11.764 54.3348 9.5168C54.3348 9.06903 54.2879 9.14089 54.7266 9.03309C54.8287 9.00822 54.9418 9.00269 55.0466 9.00269C57.7727 9.00269 60.4987 9.00269 63.2274 9.00269C63.7682 9.00269 63.8455 9.07456 63.8952 9.60525C63.9283 9.94247 63.8952 10.2769 63.8345 10.6114C63.8207 10.6915 63.782 10.744 63.702 10.7579C63.6303 10.7689 63.5613 10.7855 63.4896 10.7883C62.8053 10.8214 62.1238 10.8657 61.4368 10.8297C61.0643 10.8104 60.6918 10.8159 60.3193 10.8159C59.3592 10.8159 58.399 10.8214 57.436 10.827C57.1491 10.827 56.8594 10.8408 56.5724 10.8518C56.3379 10.8601 56.3131 10.8795 56.28 11.1199C56.2469 11.3687 56.2165 11.6202 56.2027 11.8718C56.1503 12.8088 56.1365 13.7486 56.2055 14.6828C56.2662 15.4954 56.1558 15.2881 56.9118 15.407C57.0166 15.4236 57.127 15.4125 57.2346 15.4125C59.0363 15.4125 60.838 15.4125 62.6398 15.4125C62.7225 15.4125 62.8081 15.418 62.8908 15.4125C63.0205 15.4042 63.084 15.465 63.1254 15.5866C63.2164 15.852 63.255 16.1256 63.2357 16.402C63.2247 16.5706 63.1971 16.7365 63.175 16.9023C63.164 16.9852 63.1116 17.0295 63.0343 17.0405C62.9626 17.0516 62.8908 17.0571 62.8191 17.0599C62.5321 17.0709 62.2424 17.0848 61.9555 17.0848C60.6228 17.0848 59.2902 17.0848 57.9548 17.0848C57.5823 17.0848 57.2098 17.082 56.8373 17.0848C56.7407 17.0848 56.6442 17.0848 56.5504 17.1013C56.2882 17.1539 56.211 17.2478 56.211 17.5187C56.211 18.9394 56.211 20.3574 56.211 21.7781C56.211 21.814 56.211 21.85 56.211 21.8859C56.2193 22.0048 56.2469 22.0434 56.3545 22.0545C56.6304 22.0794 56.9035 22.1153 57.1794 22.1181C59.017 22.1264 60.8546 22.1264 62.6922 22.1319C63.015 22.1319 63.3406 22.1485 63.6634 22.154C63.7848 22.154 63.851 22.1761 63.8924 22.3337C64.0028 22.7621 63.9917 23.1905 63.9062 23.6217C63.8814 23.7489 63.771 23.8345 63.6137 23.8456C63.4095 23.8567 63.2054 23.8594 63.0012 23.8594C62.4135 23.8622 61.8231 23.865 61.2354 23.865C59.2295 23.8677 57.2236 23.8732 55.2177 23.876C55.0494 23.876 54.8811 23.865 54.7128 23.865C54.5748 23.865 54.4893 23.7959 54.4258 23.6825C54.3348 23.5194 54.3099 23.3453 54.3127 23.1601C54.3182 22.8008 54.3237 22.4387 54.3237 22.0794C54.3237 20.1418 54.3237 18.207 54.3237 16.2694L54.3348 16.2638Z" fill="#48296F"/>
<path d="M104.876 16.3329C104.876 16.0095 104.874 15.6834 104.876 15.36C104.896 13.8453 104.915 12.3306 104.94 10.8159C104.948 10.3957 104.97 9.97561 105.003 9.55547C105.042 9.06347 105.028 9.10217 105.478 9.08006C106.46 9.03307 107.445 8.99714 108.43 8.99991C109.956 8.99991 111.482 9.00267 113.005 9.01372C113.399 9.01372 113.797 9.05242 114.191 9.06901C114.307 9.07453 114.365 9.12705 114.398 9.22932C114.456 9.41451 114.495 9.5997 114.498 9.79594C114.5 10.0143 114.47 10.2271 114.445 10.4427C114.406 10.7855 114.434 10.7219 114.103 10.78C113.758 10.8408 113.408 10.8269 113.06 10.8269C111.176 10.8269 109.288 10.8269 107.404 10.8269C107.332 10.8269 107.26 10.8269 107.189 10.8269C106.863 10.8214 106.888 10.838 106.813 11.1393C106.733 11.4682 106.709 11.8054 106.736 12.1426C106.78 12.6954 106.736 13.2482 106.736 13.801C106.736 14.235 106.736 14.6662 106.736 15.1001C106.736 15.277 106.761 15.3074 106.938 15.3351C107.211 15.3765 107.481 15.4208 107.76 15.4208C109.382 15.418 111.002 15.4208 112.624 15.4235C112.925 15.4235 113.226 15.4374 113.524 15.4539C113.692 15.4622 113.73 15.4982 113.761 15.6668C113.799 15.8907 113.833 16.1201 113.819 16.3495C113.808 16.5181 113.788 16.6839 113.775 16.8526C113.766 16.9493 113.728 17.0046 113.623 17.0184C113.325 17.0599 113.03 17.093 112.726 17.093C110.9 17.0903 109.076 17.093 107.249 17.093C106.811 17.093 106.874 17.046 106.827 17.4689C106.816 17.5767 106.797 17.6845 106.794 17.7923C106.772 18.4778 106.739 19.1633 106.739 19.846C106.739 20.4707 106.772 21.0954 106.791 21.72C106.791 21.767 106.797 21.8168 106.802 21.8638C106.819 21.9992 106.846 22.0407 106.973 22.0517C107.235 22.0766 107.495 22.1236 107.762 22.1236C109.804 22.1236 111.846 22.1291 113.888 22.1319C113.959 22.1319 114.031 22.1319 114.103 22.1319C114.384 22.1319 114.39 22.1042 114.486 22.4414C114.542 22.6377 114.572 22.8422 114.553 23.0495C114.542 23.1684 114.531 23.29 114.517 23.4089C114.481 23.7654 114.445 23.8041 114.1 23.8622C114.017 23.876 113.932 23.8732 113.849 23.8732C111.112 23.8732 108.372 23.876 105.635 23.876C105.539 23.876 105.442 23.876 105.348 23.8649C105.023 23.829 105.012 23.8124 104.967 23.4752C104.879 22.8174 104.918 22.154 104.907 21.4934C104.893 20.7112 104.91 19.9289 104.885 19.1495C104.857 18.2125 104.882 17.2727 104.868 16.3357L104.876 16.3329Z" fill="#48296F"/>
<path d="M20.3944 9.04113C20.6593 9.04113 20.9241 9.05494 21.1863 9.03559C21.3904 9.01901 21.498 9.1047 21.5753 9.27883C21.647 9.44467 21.7408 9.59946 21.8071 9.76531C23.4929 14.0302 25.176 18.2979 26.8618 22.5628C26.9997 22.9111 27.1018 23.2677 27.2094 23.6242C27.2453 23.7431 27.2232 23.779 27.1101 23.8039C27.0053 23.8288 26.8976 23.8509 26.7928 23.8592C26.4341 23.8923 26.0727 23.8702 25.714 23.8536C25.5374 23.8453 25.4353 23.779 25.3691 23.6049C25.1566 23.0438 24.9304 22.4882 24.7069 21.9299C24.431 21.2389 24.1496 20.5478 23.8874 19.8541C23.8102 19.6468 23.6998 19.5445 23.4736 19.5362C22.9824 19.5224 22.4913 19.4782 22.0002 19.4671C20.7889 19.4422 19.5749 19.4395 18.3637 19.4671C18.005 19.4754 17.6463 19.5113 17.2848 19.5224C17.1441 19.5279 17.0724 19.5859 17.0227 19.7131C16.7523 20.4207 16.4764 21.1228 16.2033 21.8276C15.9687 22.4329 15.7287 23.0355 15.4997 23.6408C15.45 23.7735 15.381 23.8315 15.2376 23.8315C14.7685 23.826 14.3022 23.8315 13.8332 23.8288C13.698 23.8288 13.6676 23.7873 13.6925 23.6463C13.7366 23.3976 13.7863 23.1543 13.8801 22.9166C15.5438 18.6545 17.2021 14.3923 18.8631 10.1302C18.99 9.80677 19.1307 9.4889 19.2631 9.1655C19.299 9.07705 19.3625 9.03836 19.4563 9.03836C19.7681 9.03836 20.0798 9.03836 20.3916 9.03836L20.3944 9.04113ZM20.4109 11.3187C19.975 11.8991 18.0767 16.7086 17.8863 17.7147C18.016 17.781 18.1595 17.7866 18.3002 17.7948C19.1141 17.8391 19.9308 17.8778 20.7475 17.8557C21.2994 17.8418 21.854 17.8363 22.4003 17.7755C22.999 17.7064 23.0045 17.8308 22.8003 17.1757C22.5548 16.3962 22.2623 15.6334 21.9643 14.8733C21.5449 13.8008 21.1173 12.7284 20.6234 11.6891C20.5627 11.5619 20.513 11.4265 20.4109 11.3215V11.3187Z" fill="#48296F"/>
<path d="M122.297 9.05509C122.584 9.05509 122.874 9.06339 123.161 9.05233C123.321 9.04681 123.401 9.11038 123.459 9.25134C123.603 9.59409 123.76 9.9313 123.903 10.2768C125.012 12.9358 126.069 15.6169 127.115 18.3036C127.741 19.915 128.37 21.5265 128.95 23.1545C129.005 23.312 129.063 23.4723 129.113 23.6327C129.154 23.7626 129.129 23.793 128.991 23.8317C128.815 23.8814 128.635 23.8869 128.456 23.8869C128.191 23.8869 127.929 23.8648 127.664 23.8621C127.471 23.8621 127.369 23.7764 127.297 23.5912C126.958 22.7067 126.602 21.825 126.254 20.9432C126.094 20.5425 125.931 20.1417 125.779 19.7354C125.73 19.6054 125.661 19.5446 125.517 19.5391C125.109 19.5225 124.703 19.4838 124.295 19.4783C123.023 19.4562 121.751 19.4534 120.476 19.4838C120.068 19.4949 119.662 19.5308 119.254 19.5446C119.086 19.5502 119 19.6193 118.94 19.7796C118.62 20.6226 118.288 21.4601 117.96 22.2976C117.778 22.7675 117.59 23.2346 117.411 23.7073C117.367 23.8234 117.309 23.8814 117.177 23.8787C116.804 23.8704 116.432 23.8759 116.062 23.8704C115.99 23.8704 115.918 23.8565 115.847 23.8455C115.62 23.804 115.565 23.7266 115.612 23.5C115.634 23.395 115.678 23.2954 115.72 23.1932C116.834 20.3296 117.949 17.4633 119.064 14.5998C119.731 12.8888 120.394 11.1751 121.067 9.46694C121.257 8.986 121.141 9.06615 121.644 9.06062C121.859 9.05786 122.077 9.06062 122.292 9.06062L122.297 9.05509ZM122.278 11.1668C122.231 11.2719 122.195 11.3465 122.165 11.4211C121.434 13.2868 120.705 15.1526 119.974 17.0211C119.927 17.1427 119.872 17.2643 119.836 17.3914C119.734 17.7397 119.762 17.7729 120.134 17.7978C121.5 17.889 122.869 17.8834 124.234 17.795C124.425 17.7839 124.615 17.7535 124.806 17.7287C124.924 17.7121 124.954 17.6706 124.93 17.5628C124.877 17.3279 124.781 17.1068 124.692 16.8829C124.011 15.1526 123.329 13.4223 122.651 11.6892C122.576 11.4957 122.493 11.3133 122.275 11.1696L122.278 11.1668Z" fill="#48296F"/>
<path d="M33.4237 24.0996C32.08 24.0637 30.7777 23.826 29.5416 23.2843C29.2105 23.1405 28.896 22.9664 28.6091 22.7453C28.5456 22.6955 28.5097 22.643 28.5428 22.5628C28.7139 22.1538 28.8822 21.7419 29.1361 21.3715C29.194 21.2886 29.2575 21.2582 29.3485 21.2969C29.4589 21.3439 29.572 21.3826 29.6741 21.4434C30.6922 22.0377 31.8014 22.3141 32.9712 22.35C33.4872 22.3666 34.0032 22.3776 34.5164 22.2864C35.1703 22.1703 35.7524 21.8912 36.2491 21.46C37.2727 20.57 37.1899 18.9917 35.9814 18.2758C35.8269 18.1846 35.6669 18.0989 35.5069 18.0187C35.1206 17.8225 34.7178 17.6677 34.3177 17.5102C33.3465 17.1287 32.3753 16.7473 31.4041 16.3659C31.2247 16.2968 31.0481 16.2221 30.8743 16.142C29.8617 15.6776 29.205 14.9064 28.9236 13.8285C28.6973 12.9661 28.7415 12.1148 29.0643 11.28C29.4092 10.3983 30.0272 9.76808 30.8715 9.359C31.4151 9.09642 31.9945 8.93887 32.5905 8.85042C33.7493 8.67352 34.8888 8.79237 36.0118 9.09641C36.4753 9.22079 36.9333 9.36453 37.3914 9.50826C37.7059 9.605 37.9846 9.76255 38.2053 10.0168C38.3102 10.1385 38.3377 10.249 38.2605 10.4038C38.0977 10.7244 37.9625 11.0589 37.8108 11.3878C37.7611 11.4956 37.7335 11.5067 37.6121 11.4624C37.4107 11.3878 37.2065 11.3132 37.0106 11.2247C36.3429 10.9179 35.6531 10.6802 34.9302 10.5503C33.9562 10.3734 32.9933 10.4259 32.0497 10.73C30.9764 11.0727 30.4108 12.1894 30.7501 13.2674C30.8853 13.7013 31.1613 14.0247 31.542 14.2569C31.829 14.431 32.1325 14.5775 32.4442 14.7047C33.4431 15.1165 34.4419 15.5201 35.4407 15.9319C35.8297 16.0922 36.2132 16.2636 36.5967 16.4294C36.8644 16.5427 37.1072 16.6948 37.3334 16.8772C37.5652 17.0679 37.797 17.2586 38.0232 17.4549C38.2743 17.6732 38.4481 17.9441 38.5474 18.2592C38.8371 19.1741 38.9006 20.0973 38.644 21.0288C38.3433 22.1123 37.6562 22.8807 36.6602 23.3755C36.0228 23.6933 35.3441 23.8923 34.6433 24.0112C34.2404 24.0775 33.8321 24.1024 33.4237 24.1024V24.0996Z" fill="#48296F"/>
<path d="M87.6454 24.1247C86.0368 24.1026 84.6324 23.7322 83.3384 22.986C81.8815 22.1484 80.9021 20.9046 80.3447 19.3291C79.9639 18.2539 79.7763 17.1428 79.8481 15.9985C79.9502 14.376 80.4606 12.8917 81.4318 11.5815C82.254 10.4787 83.3466 9.74342 84.6352 9.28735C85.7692 8.8838 86.9363 8.69861 88.1392 8.78706C89.5299 8.88933 90.8156 9.32052 91.991 10.0751C92.0213 10.0945 92.0517 10.1166 92.0793 10.1359C92.2559 10.2658 92.2586 10.2658 92.1731 10.4565C92.0241 10.7855 91.8696 11.1089 91.7234 11.4405C91.6654 11.5705 91.5744 11.6174 91.4419 11.6147C91.3316 11.6147 91.2295 11.5815 91.1357 11.5207C90.4404 11.0646 89.6568 10.8352 88.8539 10.6804C87.4936 10.4178 86.1775 10.5809 84.9166 11.1614C83.4046 11.8607 82.4444 13.0271 82.0057 14.6275C81.7739 15.4705 81.7077 16.3329 81.7905 17.2008C82.0223 19.7023 83.904 21.756 86.3651 22.2093C86.7431 22.2784 87.1239 22.3336 87.5074 22.3447C88.4593 22.3723 89.3671 22.1706 90.2417 21.8029C90.5397 21.6786 90.8294 21.5321 91.1219 21.3939C91.1991 21.3579 91.2709 21.3137 91.3481 21.2833C91.4806 21.2336 91.5716 21.264 91.6571 21.3856C91.9082 21.7283 92.071 22.1153 92.209 22.5161C92.231 22.5824 92.209 22.6322 92.1593 22.6736C91.9855 22.8201 91.8061 22.9638 91.602 23.0689C90.6252 23.5802 89.5961 23.9257 88.5007 24.0639C88.1806 24.1054 87.8551 24.1109 87.6454 24.1247Z" fill="#48296F"/>
<path d="M65.6687 16.1312C65.6687 15.1445 65.6549 14.1577 65.6742 13.1737C65.6852 12.5131 65.6742 11.8525 65.6604 11.1919C65.6466 10.5534 65.6797 9.91767 65.7239 9.28194C65.7321 9.13821 65.7459 9.07187 65.9363 9.05805C66.1046 9.04699 66.2702 9.00829 66.4357 9.00277C68.1409 8.95578 69.846 8.91985 71.5511 8.95578C72.5941 8.97789 73.6398 8.97789 74.6827 9.06634C75.0856 9.10227 75.0883 9.06634 75.1463 9.49753C75.1959 9.86791 75.1794 10.2411 75.0994 10.6087C75.0773 10.7109 75.0249 10.7552 74.9338 10.7635C74.8014 10.7773 74.6717 10.7911 74.5393 10.7966C73.855 10.8326 73.1735 10.8464 72.4865 10.8243C71.9595 10.8049 71.4297 10.8215 70.9027 10.8215C69.9067 10.8215 68.9079 10.8215 67.9118 10.8215C67.8153 10.8215 67.7187 10.8215 67.6249 10.8298C67.5752 10.8353 67.5366 10.874 67.5311 10.9238C67.5228 10.9818 67.5228 11.0426 67.5228 11.1034C67.52 12.4274 67.5145 13.7486 67.5118 15.0726C67.5118 15.0975 67.5118 15.1196 67.5118 15.1445C67.5035 15.2523 67.5697 15.2965 67.6608 15.3131C67.945 15.3656 68.2264 15.4126 68.5189 15.4126C69.9481 15.4071 71.3773 15.4126 72.8065 15.4126C73.1901 15.4126 73.5763 15.4126 73.9599 15.4126C74.371 15.4126 74.3875 15.4236 74.4758 15.8355C74.5448 16.1451 74.5117 16.4574 74.4758 16.7697C74.4565 16.9356 74.3213 17.0102 74.1833 17.0544C74.084 17.0876 73.9709 17.0904 73.8633 17.0904C71.9291 17.0904 69.995 17.0904 68.0636 17.0876C67.967 17.0876 67.8705 17.0876 67.7766 17.0876C67.6497 17.0931 67.6249 17.1097 67.6056 17.2258C67.5532 17.5105 67.5118 17.7924 67.5118 18.0854C67.5145 19.7328 67.5118 21.3802 67.509 23.0275C67.509 23.2072 67.5035 23.3869 67.498 23.5693C67.498 23.6494 67.4566 23.6964 67.3766 23.7241C66.971 23.8623 66.5654 23.8954 66.1377 23.8153C65.7294 23.7379 65.7514 23.7462 65.7156 23.3426C65.6383 22.5134 65.6632 21.687 65.6907 20.8578C65.7045 20.4735 65.6797 20.0893 65.6797 19.7051C65.6797 18.5138 65.6797 17.3253 65.6797 16.134L65.6687 16.1312Z" fill="#48296F"/>
<path d="M94.3278 16.2474C94.3278 13.9864 94.3278 11.7281 94.3278 9.46716C94.3278 9.01939 94.2781 9.05255 94.7251 9.05255C95.0866 9.05255 95.4453 9.05532 95.8067 9.05255C95.9502 9.05255 96.0274 9.11613 96.0771 9.24051C96.1571 9.43399 96.182 9.63576 96.1626 9.8403C96.1323 10.1416 96.1406 10.4401 96.1406 10.7414C96.1406 13.2428 96.1461 15.7415 96.1461 18.243C96.1461 19.3956 96.1406 20.551 96.1406 21.7036C96.1406 22.0297 96.1433 22.0187 96.4772 22.0657C97.04 22.1458 97.6029 22.1209 98.1658 22.1237C99.5343 22.132 100.903 22.1237 102.271 22.1265C102.572 22.1265 102.87 22.1375 103.171 22.1458C103.265 22.1458 103.317 22.1956 103.353 22.2868C103.521 22.729 103.507 23.1823 103.433 23.6384C103.419 23.7324 103.361 23.7738 103.267 23.7987C103.069 23.8512 102.867 23.8706 102.663 23.8706C101.319 23.8706 99.973 23.8706 98.6293 23.8706C97.476 23.8706 96.3254 23.8706 95.1721 23.8706C94.9541 23.8706 94.7417 23.8623 94.5292 23.8098C94.4492 23.7904 94.4106 23.749 94.3885 23.6688C94.3389 23.4919 94.3278 23.315 94.3278 23.1354C94.3278 21.3553 94.3278 19.578 94.3278 17.798V16.2474Z" fill="#48296F"/>
<path d="M29.2623 41.1345C29.2402 41.2313 29.1768 41.2727 29.1243 41.3197C28.8126 41.6044 28.5422 41.9223 28.3297 42.2899C28.2442 42.4392 28.2304 42.4392 28.0841 42.3424C27.7751 42.1351 27.4689 41.925 27.1626 41.715C27.1129 41.6818 27.0633 41.6486 27.0136 41.6155C26.8701 41.5243 26.8481 41.5243 26.7432 41.6431C26.5915 41.8145 26.4535 41.9941 26.3404 42.1932C26.299 42.265 26.2548 42.3341 26.219 42.3922C26.1169 42.4281 26.0672 42.3618 26.012 42.3258C25.6202 42.0688 25.234 41.809 24.8449 41.5491C24.7235 41.4662 24.718 41.4469 24.7677 41.3142C24.8698 41.0433 25.0022 40.789 25.1871 40.5651C25.3498 40.3689 25.5457 40.2141 25.7748 40.1008C25.8879 40.0455 25.9707 40.0565 26.0645 40.1422C26.2659 40.3302 26.4783 40.5071 26.6853 40.6895C26.7763 40.7669 26.8674 40.8443 26.9557 40.9162C27.0826 40.8692 27.1074 40.7531 27.1709 40.6702C27.3613 40.4159 27.5903 40.2113 27.8855 40.0842C27.96 40.0538 28.0207 40.0483 28.0814 40.1035C28.4759 40.4518 28.8733 40.7973 29.2623 41.1373V41.1345Z" fill="#48296F"/>
<path d="M91.1254 42.4447C90.764 42.2015 90.4357 41.9803 90.1101 41.7592C90.0411 41.7122 89.9721 41.6652 89.9004 41.6182C89.7459 41.5187 89.7348 41.5187 89.6052 41.6652C89.4286 41.8642 89.2823 42.0826 89.1527 42.312C89.0892 42.4253 89.0589 42.4309 88.9595 42.3673C88.6781 42.1821 88.4022 41.9969 88.1207 41.809C88.0711 41.7758 88.0214 41.7426 87.9718 41.7094C87.5358 41.4082 87.5386 41.5325 87.7979 40.988C87.9828 40.6011 88.2587 40.2915 88.656 40.1008C88.7691 40.0483 88.8519 40.0483 88.9457 40.1339C89.1941 40.3606 89.4479 40.579 89.7017 40.8001C89.7459 40.8388 89.7928 40.8719 89.8535 40.9189C89.9556 40.8554 89.9914 40.7531 90.0521 40.6702C90.2398 40.4131 90.4715 40.2113 90.764 40.0814C90.8385 40.0483 90.8992 40.0455 90.9627 40.098C91.36 40.4435 91.7573 40.7918 92.1629 41.1456C91.9615 41.3584 91.7711 41.5519 91.5862 41.7564C91.4096 41.9527 91.2772 42.1793 91.1227 42.4447H91.1254Z" fill="#48296F"/>
<path d="M77.5225 31.4743C77.092 31.853 76.7389 32.2399 76.5043 32.7071C76.405 32.7236 76.3554 32.6656 76.2974 32.6269C75.9111 32.3643 75.5249 32.1017 75.1413 31.8364C75.0117 31.7479 75.0117 31.7396 75.0641 31.6014C75.1689 31.3195 75.3096 31.0542 75.5083 30.8275C75.6187 30.7004 75.7456 30.5898 75.8891 30.5014C76.1981 30.3134 76.2091 30.3134 76.4768 30.5456C76.7471 30.7805 77.0175 31.0182 77.2879 31.2559C77.3597 31.3195 77.4259 31.3858 77.5225 31.4771V31.4743Z" fill="#48296F"/>
<path d="M100.882 32.0658C100.904 32.0354 100.918 32.0022 100.943 31.9801C101.301 31.6622 101.663 31.3499 102.019 31.0293C102.126 30.9325 102.22 30.9325 102.341 30.9961C102.626 31.1426 102.846 31.3554 103.026 31.6152C103.147 31.7949 103.238 31.9911 103.318 32.1902C103.351 32.2758 103.354 32.3505 103.266 32.4085C102.822 32.707 102.377 33.0083 101.919 33.3179C101.748 33.0829 101.627 32.8342 101.439 32.6324C101.26 32.4417 101.075 32.2565 100.887 32.063L100.882 32.0658Z" fill="#48296F"/>
<path d="M5.72185 35.8636C5.68599 35.9106 5.67495 35.9355 5.65564 35.9493C5.3135 36.2202 5.02104 36.5353 4.80306 36.9167C4.75064 37.0079 4.71477 37.0135 4.632 36.9554C4.25952 36.6901 3.88979 36.422 3.54214 36.1262C3.37659 35.9852 3.32969 35.8111 3.37659 35.6093C3.48144 35.1588 3.73252 34.8271 4.16571 34.6447C4.25952 34.606 4.34781 34.5949 4.43058 34.6723C4.85273 35.0648 5.27763 35.4545 5.71909 35.8581L5.72185 35.8636Z" fill="#48296F"/>
</svg>
