<svg width="25" height="24" viewBox="0 0 25 24" fill="none" xmlns="http://www.w3.org/2000/svg">
<path opacity="0.4" d="M10.3203 2.81986L3.39027 8.36985C2.61027 8.98985 2.11027 10.2999 2.28027 11.2799L3.61027 19.2398C3.85027 20.6598 5.21026 21.8099 6.65026 21.8099H17.8503C19.2803 21.8099 20.6503 20.6498 20.8903 19.2398L22.2203 11.2799C22.3803 10.2999 21.8803 8.98985 21.1103 8.36985L14.1803 2.82984C13.1103 1.96984 11.3803 1.96986 10.3203 2.81986Z" fill="#17191F"/>
<path d="M12.25 15.5C13.6307 15.5 14.75 14.3807 14.75 13C14.75 11.6193 13.6307 10.5 12.25 10.5C10.8693 10.5 9.75 11.6193 9.75 13C9.75 14.3807 10.8693 15.5 12.25 15.5Z" fill="#17191F"/>
</svg>
