<svg width="36" height="40" viewBox="0 0 36 40" fill="none" xmlns="http://www.w3.org/2000/svg">
<path fill-rule="evenodd" clip-rule="evenodd" d="M8.83333 20.4584C8.07395 20.4584 7.45833 21.074 7.45833 21.8334V39.7084H0.125V12.6667C0.125 12.207 0.354764 11.7777 0.737288 11.5227L17.2373 0.522678C17.6992 0.214771 18.3009 0.214771 18.7627 0.522678L35.2627 11.5227C35.6453 11.7777 35.875 12.207 35.875 12.6667V39.7084H28.5417V21.8334C28.5417 21.074 27.926 20.4584 27.1667 20.4584H8.83333ZM19.8476 12.6667H16.1645V9.00008H19.8476V12.6667Z" fill="#5F398E"/>
<path d="M25.7917 39.7084H10.2083V34.2084H25.7917V39.7084Z" fill="#5F398E"/>
<path d="M10.2083 28.7084V31.4584H25.7917V28.7084H10.2083Z" fill="#5F398E"/>
<path d="M10.2083 25.9584H25.7917V23.2084H10.2083V25.9584Z" fill="#5F398E"/>
</svg>
