<svg width="40" height="40" viewBox="0 0 40 40" fill="none" xmlns="http://www.w3.org/2000/svg">
<path d="M22.45 12.3501L26.55 10.3334C27.05 10.0834 27.1833 9.43345 26.8 9.03345C25.3167 7.40012 23.8167 6.03345 22.6167 5.00012C22.0667 4.53345 21.25 4.91678 21.25 5.63345V11.6001C21.25 12.2168 21.9 12.6168 22.45 12.3501Z" fill="#5F398E"/>
<path d="M21.25 32.9001V35.6501C21.25 36.1501 21.7 36.5668 22.2 36.4834C26.75 35.7334 30.55 32.6834 32.35 28.5834C32.6667 27.8834 31.9 27.1834 31.2 27.5168L21.7167 32.1668C21.4333 32.3001 21.25 32.5834 21.25 32.9001Z" fill="#5F398E"/>
<path d="M18.7501 5.60012C18.7501 4.88345 17.9335 4.50012 17.3835 4.95012C13.4501 8.25012 6.46679 15.2001 6.50012 23.1668C6.50012 29.8668 11.4001 35.4168 17.8001 36.4834C18.3001 36.5668 18.7501 36.1501 18.7501 35.6501V5.60012Z" fill="#5F398E"/>
<path d="M22.4001 20.7832L31.2167 17.0832C31.6667 16.8832 31.8834 16.3666 31.6667 15.9332C31.0501 14.7166 30.3334 13.5332 29.5501 12.4332C29.3167 12.0999 28.8834 11.9999 28.5167 12.1666L21.7001 15.4832C21.4167 15.6166 21.2334 15.9166 21.2334 16.2332V20.0166C21.2501 20.5999 21.8501 21.0166 22.4001 20.7832Z" fill="#5F398E"/>
<path d="M33.05 23.85C33.3167 23.7167 33.4833 23.4667 33.4833 23.1834C33.4833 22.1167 33.35 21.0667 33.1167 20.0334C33 19.5334 32.45 19.2667 31.9833 19.4667L21.75 23.8334C21.45 23.9667 21.25 24.2667 21.25 24.6V28.2667C21.25 28.8834 21.9 29.2834 22.45 29.0167L32.2833 24.2334L33.05 23.85Z" fill="#5F398E"/>
</svg>
