<svg width="40" height="41" viewBox="0 0 40 41" fill="none" xmlns="http://www.w3.org/2000/svg">
<path d="M34.3658 14.5834C32.6158 6.88341 25.8992 3.41675 19.9992 3.41675C19.9992 3.41675 19.9992 3.41675 19.9825 3.41675C14.0992 3.41675 7.36585 6.86675 5.61585 14.5667C3.66585 23.1667 8.93252 30.4501 13.6992 35.0334C15.4658 36.7334 17.7325 37.5834 19.9992 37.5834C22.2658 37.5834 24.5325 36.7334 26.2825 35.0334C31.0492 30.4501 36.3158 23.1834 34.3658 14.5834ZM19.9992 22.9334C17.0992 22.9334 14.7492 20.5834 14.7492 17.6834C14.7492 14.7834 17.0992 12.4334 19.9992 12.4334C22.8992 12.4334 25.2492 14.7834 25.2492 17.6834C25.2492 20.5834 22.8992 22.9334 19.9992 22.9334Z" fill="#5F398E"/>
</svg>
