<svg width="40" height="41" viewBox="0 0 40 41" fill="none" xmlns="http://www.w3.org/2000/svg">
<path d="M21.984 10.5H11.3173C10.884 10.5 10.4673 10.5167 10.0673 10.5667C5.58398 10.95 3.33398 13.6 3.33398 18.4833V25.15C3.33398 31.8167 6.00065 33.1333 11.3173 33.1333H11.984C12.3507 33.1333 12.834 33.3833 13.0507 33.6667L15.0507 36.3333C15.934 37.5167 17.3673 37.5167 18.2507 36.3333L20.2507 33.6667C20.5007 33.3333 20.9007 33.1333 21.3173 33.1333H21.984C26.8673 33.1333 29.5173 30.9 29.9007 26.4C29.9507 26 29.9673 25.5833 29.9673 25.15V18.4833C29.9673 13.1667 27.3006 10.5 21.984 10.5ZM10.834 23.8333C9.90065 23.8333 9.16732 23.0833 9.16732 22.1667C9.16732 21.25 9.91732 20.5 10.834 20.5C11.7507 20.5 12.5007 21.25 12.5007 22.1667C12.5007 23.0833 11.7507 23.8333 10.834 23.8333ZM16.6507 23.8333C15.7173 23.8333 14.984 23.0833 14.984 22.1667C14.984 21.25 15.734 20.5 16.6507 20.5C17.5673 20.5 18.3173 21.25 18.3173 22.1667C18.3173 23.0833 17.584 23.8333 16.6507 23.8333ZM22.484 23.8333C21.5506 23.8333 20.8173 23.0833 20.8173 22.1667C20.8173 21.25 21.5673 20.5 22.484 20.5C23.4007 20.5 24.1507 21.25 24.1507 22.1667C24.1507 23.0833 23.4007 23.8333 22.484 23.8333Z" fill="#5F398E"/>
<path d="M36.6324 11.8166V18.4833C36.6324 21.8166 35.5991 24.0833 33.5324 25.3333C33.0324 25.6333 32.4491 25.2333 32.4491 24.6499L32.4658 18.4833C32.4658 11.8166 28.6491 7.99992 21.9824 7.99992L11.8324 8.01659C11.2491 8.01659 10.8491 7.43325 11.1491 6.93325C12.3991 4.86659 14.6658 3.83325 17.9824 3.83325H28.6491C33.9658 3.83325 36.6324 6.49992 36.6324 11.8166Z" fill="#5F398E"/>
</svg>
