<svg width="21" height="20" viewBox="0 0 21 20" fill="none" xmlns="http://www.w3.org/2000/svg">
<path d="M18.4419 13.2758C18.3086 13.0508 17.9336 12.7008 17.0002 12.8675C16.4836 12.9591 15.9586 13.0008 15.4336 12.9758C13.4919 12.8925 11.7336 12.0008 10.5086 10.6258C9.42525 9.41746 8.75858 7.84245 8.75025 6.14246C8.75025 5.19246 8.93358 4.27579 9.30858 3.40912C9.67525 2.56746 9.41691 2.12579 9.23358 1.94246C9.04191 1.75079 8.59191 1.48412 7.70858 1.85079C4.30024 3.28412 2.19191 6.70079 2.44191 10.3591C2.69191 13.8008 5.10858 16.7425 8.30858 17.8508C9.07525 18.1175 9.88358 18.2758 10.7169 18.3091C10.8502 18.3175 10.9836 18.3258 11.1169 18.3258C13.9086 18.3258 16.5252 17.0091 18.1752 14.7675C18.7336 13.9925 18.5836 13.5008 18.4419 13.2758Z" fill="#898A91"/>
</svg>
