<svg width="38" height="38" viewBox="0 0 38 38" fill="none" xmlns="http://www.w3.org/2000/svg">
<path fill-rule="evenodd" clip-rule="evenodd" d="M0.666992 35.6665C0.666992 34.746 1.41318 33.9998 2.33366 33.9998L2.33366 12.2097C2.33361 9.95789 2.33356 8.09117 2.54414 6.61193C2.76684 5.04751 3.25365 3.67484 4.40658 2.58595C5.54607 1.50977 6.95979 1.06725 8.56955 0.862841C10.1165 0.666423 12.076 0.666458 14.4756 0.666505H23.5252C25.9247 0.666458 27.8842 0.666423 29.4311 0.862841C31.0409 1.06725 32.4546 1.50977 33.5941 2.58595C34.747 3.67484 35.2339 5.04751 35.4566 6.61193C35.6671 8.09123 35.6671 9.95794 35.667 12.2099V33.9998C36.5875 33.9999 37.3337 34.746 37.3337 35.6665C37.3337 36.587 36.5875 37.3332 35.667 37.3332H2.33366C1.41318 37.3332 0.666992 36.587 0.666992 35.6665ZM25.9702 17.7871C26.6399 17.9545 27.0471 18.6332 26.8797 19.3029L25.6013 24.4165H27.7503V18.9997C27.7503 18.3094 28.31 17.7497 29.0003 17.7497C29.6907 17.7497 30.2503 18.3094 30.2503 18.9997V24.4165H31.3337C31.8051 24.4165 32.0408 24.4165 32.1872 24.2701C32.3337 24.1236 32.3337 23.8879 32.3337 23.4165V16.2498C32.3337 15.7784 32.3337 15.5427 32.1872 15.3963C32.0408 15.2498 31.8051 15.2498 31.3337 15.2498H6.667C6.19559 15.2498 5.95989 15.2498 5.81344 15.3963C5.667 15.5427 5.667 15.7784 5.667 16.2498V23.4165C5.667 23.8879 5.667 24.1236 5.81344 24.2701C5.95989 24.4165 6.19559 24.4165 6.667 24.4165H19.417V18.9997C19.417 18.3094 19.9766 17.7497 20.667 17.7497C21.3573 17.7497 21.917 18.3094 21.917 18.9997V24.4165H23.0243L24.4543 18.6966C24.6217 18.0268 25.3004 17.6196 25.9702 17.7871ZM17.3337 29.4165C16.6433 29.4165 16.0837 29.9761 16.0837 30.6665C16.0837 31.3569 16.6433 31.9165 17.3337 31.9165H20.667C21.3573 31.9165 21.917 31.3569 21.917 30.6665C21.917 29.9761 21.3573 29.4165 20.667 29.4165H17.3337ZM15.213 7.0303C15.0456 6.36055 14.3669 5.95335 13.6972 6.12079C13.0274 6.28822 12.6202 6.96689 12.7876 7.63664L14.066 12.7502H16.643L15.213 7.0303ZM17.7503 12.7502H20.2503V7.33347C20.2503 6.64311 19.6907 6.08347 19.0003 6.08347C18.31 6.08347 17.7503 6.64311 17.7503 7.33347V12.7502ZM8.58366 12.7502H11.0837V7.33347C11.0837 6.64311 10.524 6.08347 9.83366 6.08347C9.1433 6.08347 8.58366 6.64311 8.58366 7.33347V12.7502Z" fill="#5F398E"/>
</svg>
