<svg width="40" height="40" viewBox="0 0 40 40" fill="none" xmlns="http://www.w3.org/2000/svg">
<path d="M27.6501 12.3499L10.5168 29.4833C9.71676 30.2833 8.35009 30.0999 7.86676 29.0833C7.00009 27.2999 6.50009 25.2833 6.50009 23.1666C6.46676 13.9666 15.8001 6.09992 18.9668 3.68325C19.5834 3.21659 20.4168 3.21659 21.0168 3.68325C22.4668 4.78325 25.1834 7.06659 27.7334 10.0666C28.3001 10.7333 28.2668 11.7333 27.6501 12.3499Z" fill="#5F398E"/>
<path d="M33.4996 23.1833C33.4996 30.6166 27.4496 36.6666 19.9996 36.6666C17.0163 36.6666 14.2329 35.7 11.9829 34.0333C11.1663 33.4333 11.0996 32.2333 11.8163 31.5166L28.5996 14.7333C29.3829 13.95 30.6996 14.1166 31.2329 15.0833C32.5996 17.6 33.5163 20.3333 33.4996 23.1833Z" fill="#5F398E"/>
</svg>
