<svg width="40" height="40" viewBox="0 0 40 40" fill="none" xmlns="http://www.w3.org/2000/svg">
  <path fill-rule="evenodd" clip-rule="evenodd" d="M25.1532 4.87484L20.9726 0.694231C20.4356 0.157262 19.565 0.157262 19.0281 0.694231L14.8474 4.87484H6.25032C5.49093 4.87484 4.87533 5.49045 4.87533 6.24984V14.847L0.69472 19.0276C0.157749 19.5645 0.157749 20.4351 0.69472 20.9721L4.87533 25.1527V33.7498C4.87533 34.5092 5.49093 35.1248 6.25032 35.1248H14.8475L19.0281 39.3054C19.565 39.8424 20.4356 39.8424 20.9726 39.3054L25.1532 35.1248H33.7503C34.5097 35.1248 35.1253 34.5092 35.1253 33.7498V25.1527L39.3059 20.9721C39.8429 20.4351 39.8429 19.5645 39.3059 19.0276L35.1253 14.847V6.24984C35.1253 5.49045 34.5097 4.87484 33.7503 4.87484H25.1532ZM27.9066 7.62463H32.3787V12.0968L27.9066 7.62463ZM35.1287 18.7358L36.3925 19.9996L35.1287 21.2634V18.7358ZM32.3787 27.9025V32.3746H27.9066L32.3787 27.9025ZM12.1008 32.3746H7.6287V27.9025L12.1008 32.3746ZM21.2675 35.1246L20.0037 36.3884L18.7399 35.1246H21.2675ZM4.8787 21.2634L3.61491 19.9996L4.8787 18.7358V21.2634ZM7.6287 12.0968V7.62463H12.1008L7.6287 12.0968ZM18.7399 4.87463L20.0037 3.61084L21.2675 4.87463H18.7399ZM20.0003 15.4165C17.469 15.4165 15.417 17.4685 15.417 19.9998C15.417 22.5311 17.469 24.5832 20.0003 24.5832C22.5316 24.5832 24.5837 22.5311 24.5837 19.9998C24.5837 17.4685 22.5316 15.4165 20.0003 15.4165Z" fill="#492a70"/>
</svg>