<svg width="40" height="41" viewBox="0 0 40 41" fill="none" xmlns="http://www.w3.org/2000/svg">
<path d="M32.5007 13.8333C34.8018 13.8333 36.6673 11.9679 36.6673 9.66667C36.6673 7.36548 34.8018 5.5 32.5007 5.5C30.1995 5.5 28.334 7.36548 28.334 9.66667C28.334 11.9679 30.1995 13.8333 32.5007 13.8333Z" fill="#5F398E"/>
<path d="M32.5007 13.8333C34.8018 13.8333 36.6673 11.9679 36.6673 9.66667C36.6673 7.36548 34.8018 5.5 32.5007 5.5C30.1995 5.5 28.334 7.36548 28.334 9.66667C28.334 11.9679 30.1995 13.8333 32.5007 13.8333Z" fill="#5F398E"/>
<path d="M34.534 16.0166C33.3673 16.3833 32.084 16.4499 30.7507 16.1166C28.5173 15.5333 26.7007 13.7499 26.084 11.5166C25.784 10.4333 25.7673 9.36659 25.9507 8.39992C26.1673 7.33325 25.4173 6.33325 24.3507 6.33325H11.6673C6.66732 6.33325 3.33398 8.83325 3.33398 14.6666V26.3333C3.33398 32.1666 6.66732 34.6666 11.6673 34.6666H28.334C33.334 34.6666 36.6673 32.1666 36.6673 26.3333V17.5999C36.6673 16.4999 35.6007 15.6666 34.534 16.0166ZM25.8673 19.0833L23.9007 20.6499C22.8007 21.5333 21.4007 21.9666 20.0007 21.9666C18.6007 21.9666 17.184 21.5333 16.1007 20.6499L10.884 16.4833C10.3507 16.0499 10.2673 15.2499 10.684 14.7166C11.1173 14.1833 11.9007 14.0833 12.434 14.5166L17.6507 18.6833C18.9173 19.6999 21.0673 19.6999 22.334 18.6833L24.3007 17.1166C24.834 16.6833 25.634 16.7666 26.0507 17.3166C26.484 17.8499 26.4007 18.6499 25.8673 19.0833Z" fill="#5F398E"/>
</svg>
