<svg width="36" height="28" viewBox="0 0 36 28" fill="none" xmlns="http://www.w3.org/2000/svg">
<path d="M4.66532 27.75V23.1667H1.74967V16.0541C0.753339 15.4777 0.0830078 14.4005 0.0830078 13.1667C0.0830078 11.3257 1.57539 9.83333 3.41634 9.83333C5.25729 9.83333 6.74967 11.3257 6.74967 13.1667V18.1667H29.2497V13.1667C29.2497 11.3257 30.7421 9.83333 32.583 9.83333C34.424 9.83333 35.9163 11.3257 35.9163 13.1667C35.9163 14.4005 35.246 15.4777 34.2497 16.0541V23.1667H31.332V27.75H27.9987V23.1667H7.99866V27.75H4.66532Z" fill="#5F398E"/>
<path d="M3.41736 4.83333V8.16667C6.17878 8.16667 8.41736 10.4052 8.41736 13.1667V16.5H27.584V13.1667C27.584 10.4052 29.8226 8.16667 32.5841 8.16667V4.83334C32.5841 2.30203 30.532 0.25 28.0007 0.25H8.00069C5.46939 0.25 3.41736 2.30203 3.41736 4.83333Z" fill="#5F398E"/>
</svg>
