<svg width="21" height="20" viewBox="0 0 21 20" fill="none" xmlns="http://www.w3.org/2000/svg">
<path d="M10.5013 15.8327C13.723 15.8327 16.3346 13.221 16.3346 9.99935C16.3346 6.77769 13.723 4.16602 10.5013 4.16602C7.27964 4.16602 4.66797 6.77769 4.66797 9.99935C4.66797 13.221 7.27964 15.8327 10.5013 15.8327Z" fill="#17191F"/>
<path d="M10.4987 19.134C10.0404 19.134 9.66536 18.7923 9.66536 18.334V18.2673C9.66536 17.809 10.0404 17.434 10.4987 17.434C10.957 17.434 11.332 17.809 11.332 18.2673C11.332 18.7257 10.957 19.134 10.4987 19.134ZM16.4487 16.784C16.232 16.784 16.0237 16.7007 15.857 16.5423L15.7487 16.434C15.4237 16.109 15.4237 15.584 15.7487 15.259C16.0737 14.934 16.5987 14.934 16.9237 15.259L17.032 15.3673C17.357 15.6923 17.357 16.2173 17.032 16.5423C16.8737 16.7007 16.6654 16.784 16.4487 16.784ZM4.5487 16.784C4.33203 16.784 4.1237 16.7007 3.95703 16.5423C3.63203 16.2173 3.63203 15.6923 3.95703 15.3673L4.06536 15.259C4.39036 14.934 4.91536 14.934 5.24036 15.259C5.56536 15.584 5.56536 16.109 5.24036 16.434L5.13203 16.5423C4.9737 16.7007 4.75703 16.784 4.5487 16.784ZM18.832 10.834H18.7654C18.307 10.834 17.932 10.459 17.932 10.0007C17.932 9.54232 18.307 9.16732 18.7654 9.16732C19.2237 9.16732 19.632 9.54232 19.632 10.0007C19.632 10.459 19.2904 10.834 18.832 10.834ZM2.23203 10.834H2.16536C1.70703 10.834 1.33203 10.459 1.33203 10.0007C1.33203 9.54232 1.70703 9.16732 2.16536 9.16732C2.6237 9.16732 3.03203 9.54232 3.03203 10.0007C3.03203 10.459 2.69036 10.834 2.23203 10.834ZM16.3404 4.99232C16.1237 4.99232 15.9154 4.90898 15.7487 4.75065C15.4237 4.42565 15.4237 3.90065 15.7487 3.57565L15.857 3.46732C16.182 3.14232 16.707 3.14232 17.032 3.46732C17.357 3.79232 17.357 4.31732 17.032 4.64232L16.9237 4.75065C16.7654 4.90898 16.557 4.99232 16.3404 4.99232ZM4.65703 4.99232C4.44036 4.99232 4.23203 4.90898 4.06536 4.75065L3.95703 4.63398C3.63203 4.30898 3.63203 3.78398 3.95703 3.45898C4.28203 3.13398 4.80703 3.13398 5.13203 3.45898L5.24036 3.56732C5.56536 3.89232 5.56536 4.41732 5.24036 4.74232C5.08203 4.90898 4.86536 4.99232 4.65703 4.99232ZM10.4987 2.53398C10.0404 2.53398 9.66536 2.19232 9.66536 1.73398V1.66732C9.66536 1.20898 10.0404 0.833984 10.4987 0.833984C10.957 0.833984 11.332 1.20898 11.332 1.66732C11.332 2.12565 10.957 2.53398 10.4987 2.53398Z" fill="#17191F"/>
</svg>
