<svg width="399" height="417" viewBox="0 0 399 417" fill="none" xmlns="http://www.w3.org/2000/svg">
<path d="M0.842395 208.637C6.75803 209.075 12.687 209.562 18.6026 209.962C39.3937 211.337 59.9722 213.961 80.2183 218.797C132.09 231.168 166.56 260.859 182.712 309.082C188.441 326.215 192.177 343.709 194.649 361.492C197.215 379.911 198.385 398.443 199.595 417C200.525 410.377 201.017 403.766 201.442 397.143C203.357 368.002 207.039 339.148 216.172 311.069C231.326 264.458 263.191 233.78 313.361 220.359C330.443 215.785 347.844 212.836 365.512 211.237C376.372 210.249 387.26 209.5 398.134 208.637C374.166 206.8 350.423 204.564 326.987 199.79C267.977 187.794 230.117 154.954 214.311 99.8701C208.342 79.0888 204.726 57.9951 202.812 36.6015C201.722 24.4177 200.937 12.2088 200.02 0C198.491 4.77357 198.744 9.52215 198.451 14.2332C196.577 45.8737 193.094 77.2893 182.698 107.68C169.923 145.007 146.38 173.51 107.231 189.268C93.9506 194.617 80.1651 198.366 66.0208 201.077C44.5251 205.188 22.7369 206.875 0.829102 208.637H0.842395Z" fill="white"/>
</svg>
