<svg width="33" height="37" viewBox="0 0 33 37" fill="none" xmlns="http://www.w3.org/2000/svg">
<path d="M32.9989 18.5122C32.5075 18.551 32.0151 18.5942 31.5237 18.6297C29.7968 18.7517 28.0876 18.9845 26.406 19.4136C22.0975 20.5113 19.2345 23.1458 17.8929 27.4246C17.417 28.9447 17.1067 30.497 16.9014 32.0748C16.6883 33.7091 16.5911 35.3535 16.4906 37C16.4133 36.4123 16.3725 35.8258 16.3371 35.2381C16.1781 32.6525 15.8723 30.0923 15.1137 27.6009C13.855 23.4651 11.2083 20.7431 7.04122 19.5522C5.62238 19.1464 4.17703 18.8847 2.7096 18.7428C1.80751 18.6552 0.903202 18.5887 0 18.5122C1.9908 18.3492 3.96283 18.1507 5.90946 17.7272C10.8108 16.6627 13.9555 13.7489 15.2683 8.86137C15.7641 7.01747 16.0644 5.14585 16.2234 3.24762C16.314 2.16656 16.3791 1.08328 16.4553 0C16.5823 0.423554 16.5613 0.844891 16.5856 1.2629C16.7413 4.07033 17.0305 6.85781 17.894 9.55436C18.9551 12.8663 20.9106 15.3954 24.1623 16.7936C25.2654 17.2681 26.4104 17.6008 27.5852 17.8414C29.3706 18.2062 31.1803 18.3559 33 18.5122H32.9989Z" fill="#48296F"/>
</svg>
