<svg width="207" height="200" viewBox="0 0 207 200" fill="none" xmlns="http://www.w3.org/2000/svg">
<path d="M108.639 4.10959L122.979 77.1865C123.388 79.215 125.023 80.8219 127.122 81.1907L202.747 95.0474C208.418 96.0748 208.418 103.925 202.747 104.953L127.122 118.809C125.023 119.204 123.36 120.785 122.979 122.813L108.639 195.89C107.576 201.37 99.4516 201.37 98.3884 195.89L84.0486 122.813C83.6397 120.785 82.0039 119.178 79.9048 118.809L4.25286 104.979C-1.41762 103.952 -1.41762 96.1012 4.25286 95.0738L79.8775 81.2171C81.9767 80.8219 83.6397 79.2413 84.0213 77.2129L98.3884 4.10959C99.4516 -1.36986 107.576 -1.36986 108.639 4.10959Z" fill="#F9F9F9"/>
</svg>
