<svg width="232" height="231" viewBox="0 0 232 231" fill="none" xmlns="http://www.w3.org/2000/svg">
<path d="M121.76 4.74658L137.831 89.1504C138.289 91.4933 140.123 93.3493 142.475 93.7753L227.234 109.78C233.589 110.966 233.589 120.034 227.234 121.22L142.475 137.225C140.123 137.681 138.259 139.507 137.831 141.85L121.76 226.253C120.568 232.582 111.463 232.582 110.271 226.253L94.1994 141.85C93.7411 139.507 91.9078 137.651 89.5551 137.225L4.7665 121.251C-1.58883 120.064 -1.58883 110.997 4.7665 109.81L89.5246 93.8057C91.8773 93.3493 93.7411 91.5237 94.1688 89.1809L110.271 4.74658C111.463 -1.58219 120.568 -1.58219 121.76 4.74658Z" fill="#F9F9F9"/>
</svg>
