<svg width="74" height="71" viewBox="0 0 74 71" fill="none" xmlns="http://www.w3.org/2000/svg">
<path d="M38.8371 1.4589L43.9634 27.4012C44.1096 28.1213 44.6943 28.6918 45.4448 28.8227L72.4797 33.7418C74.5068 34.1066 74.5068 36.8934 72.4797 37.2582L45.4448 42.1773C44.6943 42.3176 44.0998 42.8787 43.9634 43.5988L38.8371 69.5411C38.457 71.4863 35.5527 71.4863 35.1727 69.5411L30.0464 43.5988C29.9002 42.8787 29.3154 42.3082 28.565 42.1773L1.52035 37.2675C-0.506783 36.9028 -0.506783 34.1159 1.52035 33.7512L28.5552 28.8321C29.3057 28.6918 29.9002 28.1307 30.0366 27.4106L35.1727 1.4589C35.5527 -0.486301 38.457 -0.486301 38.8371 1.4589Z" fill="#5F398E"/>
</svg>
