<svg width="84" height="95" viewBox="0 0 84 95" fill="none" xmlns="http://www.w3.org/2000/svg">
<path d="M41.9328 6.70699C42.3768 12.7726 43.1861 18.8057 45.029 24.6811L45.0291 24.6812C47.7317 33.2926 52.7338 39.917 61.0709 43.5765L41.9328 6.70699ZM41.9328 6.70699C41.8915 7.26473 41.8484 7.82226 41.8027 8.37936C41.4007 13.2776 40.6412 18.1125 39.3857 22.8794C37.7154 29.227 34.8719 34.3206 30.8639 38.1753C26.8559 42.03 21.7092 44.621 15.4716 46.0038C12.3597 46.695 9.22495 47.1538 6.07623 47.5035C6.50583 47.5427 6.93522 47.5834 7.36419 47.6259C11.083 47.993 14.7489 48.6703 18.3499 49.7217C29.0049 52.8301 35.7815 59.9544 38.9925 70.7242C40.6884 76.4104 41.4895 82.2264 41.9301 88.0839C42.0824 86.1505 42.2673 84.2182 42.5135 82.2909C43.0328 78.2182 43.8183 74.2038 45.0253 70.2678L45.0254 70.2676C48.4508 59.1149 55.7857 52.2238 66.7891 49.3619C70.4101 48.4187 74.0771 47.8428 77.7721 47.4977L41.9328 6.70699Z" fill="#F9F9F9" stroke="#E9E2EF"/>
</svg>
