<svg width="16" height="17" viewBox="0 0 16 17" fill="none" xmlns="http://www.w3.org/2000/svg">
<path d="M1.33245 15.7756C1.19912 15.7756 1.07243 15.7222 0.979096 15.6289C0.852429 15.5022 0.799129 15.3155 0.845795 15.1422L1.6858 12.0022C1.1258 10.9622 0.832449 9.78888 0.832449 8.60221C0.832449 4.64888 4.04578 1.43555 7.99912 1.43555C11.9524 1.43555 15.1658 4.64888 15.1658 8.60221C15.1658 12.5555 11.9524 15.7689 7.99912 15.7689C6.79245 15.7689 5.61247 15.4689 4.55913 14.8955L1.46579 15.7556C1.41912 15.7689 1.37912 15.7756 1.33245 15.7756ZM4.62578 13.8622C4.71245 13.8622 4.79912 13.8889 4.87912 13.9289C5.81912 14.4822 6.89912 14.7756 7.99912 14.7756C11.3991 14.7756 14.1658 12.0089 14.1658 8.60889C14.1658 5.20889 11.3991 2.44222 7.99912 2.44222C4.59912 2.44222 1.83245 5.20889 1.83245 8.60889C1.83245 9.69555 2.11911 10.7556 2.65911 11.6889C2.72578 11.8022 2.74579 11.9422 2.71245 12.0689L2.04579 14.5622L4.49912 13.8822C4.53912 13.8689 4.58578 13.8622 4.62578 13.8622Z" fill="black"/>
<path d="M9.82682 12.4489C9.41349 12.4489 8.98683 12.3556 8.54016 12.1622C8.12016 11.9822 7.70016 11.7422 7.2935 11.4422C6.8935 11.1489 6.50018 10.8156 6.14018 10.4556C5.78018 10.0889 5.44682 9.70225 5.15348 9.30225C4.85348 8.88225 4.61348 8.46891 4.44014 8.06224C4.25348 7.62224 4.16016 7.18891 4.16016 6.77558C4.16016 6.48225 4.21348 6.20225 4.31348 5.94225C4.42014 5.66891 4.59348 5.42224 4.82015 5.20891C5.24682 4.78891 5.86018 4.63559 6.34684 4.86892C6.51351 4.94226 6.65351 5.06226 6.76017 5.22226L7.53349 6.30891C7.61349 6.41557 7.67351 6.52891 7.72017 6.64224C7.77351 6.77557 7.80684 6.90892 7.80684 7.03559C7.80684 7.20892 7.76016 7.38226 7.66683 7.53559C7.60683 7.63559 7.52015 7.75559 7.40682 7.86892L7.32015 7.96225C7.36015 8.01558 7.40681 8.08224 7.48014 8.16224C7.62014 8.32224 7.77348 8.49557 7.94015 8.66224C8.10681 8.82224 8.27348 8.98224 8.44015 9.12224C8.52014 9.18891 8.58684 9.24225 8.64018 9.27558L8.73348 9.18224C8.85348 9.06224 8.97351 8.96892 9.09351 8.90892C9.31351 8.76892 9.65349 8.73558 9.95349 8.86225C10.0602 8.90225 10.1668 8.96224 10.2802 9.04224L11.3935 9.82891C11.5468 9.93557 11.6668 10.0822 11.7468 10.2489C11.8135 10.4156 11.8402 10.5623 11.8402 10.7156C11.8402 10.9156 11.7935 11.1089 11.7068 11.2956C11.6202 11.4689 11.5201 11.6223 11.4001 11.7623C11.1868 11.9956 10.9402 12.1689 10.6735 12.2823C10.4068 12.3956 10.1202 12.4489 9.82682 12.4489ZM5.86015 5.76891C5.82015 5.76891 5.68685 5.76891 5.52018 5.93557C5.39352 6.05557 5.30683 6.18225 5.24683 6.32225C5.18683 6.46225 5.16016 6.62225 5.16016 6.78225C5.16016 7.06225 5.22681 7.36224 5.36015 7.68224C5.50015 8.01557 5.70683 8.36892 5.96016 8.72226C6.22016 9.07559 6.5135 9.42892 6.84017 9.75558C7.16684 10.0756 7.51349 10.3756 7.87349 10.6422C8.22016 10.8956 8.57351 11.0956 8.92684 11.2489C9.43351 11.4689 9.90015 11.5223 10.2802 11.3623C10.4135 11.3089 10.5335 11.2156 10.6535 11.0956C10.7135 11.0289 10.7602 10.9622 10.8002 10.8756C10.8202 10.8289 10.8335 10.7756 10.8335 10.7289C10.8335 10.7156 10.8335 10.6956 10.8135 10.6556L9.70015 9.88225C9.65349 9.84892 9.60681 9.82224 9.56681 9.80891C9.54015 9.82224 9.50017 9.84224 9.42684 9.91558L9.1735 10.1689C8.98017 10.3622 8.67351 10.4156 8.42684 10.3289L8.30684 10.2756C8.15351 10.1956 7.98016 10.0756 7.78682 9.90892C7.60016 9.74892 7.42018 9.58224 7.22685 9.39558C7.04018 9.20224 6.8735 9.02225 6.7135 8.83558C6.54017 8.62891 6.42017 8.46225 6.34017 8.32225L6.26685 8.14891C6.24685 8.08225 6.24015 8.00891 6.24015 7.94225C6.24015 7.75558 6.30685 7.58891 6.43351 7.45557L6.68685 7.19558C6.76018 7.12225 6.78684 7.08226 6.80017 7.05559C6.78017 7.00892 6.75351 6.96892 6.72017 6.92225L5.94014 5.82225L5.86015 5.76891Z" fill="black"/>
</svg>
